<?xml version="1.0" encoding="UTF-8" standalone="no"?>
<!DOCTYPE svg PUBLIC "-//W3C//DTD SVG 1.1//EN"
 "http://www.w3.org/Graphics/SVG/1.1/DTD/svg11.dtd">
<!-- Generated by graphviz version 2.43.0 (0)
 -->
<!-- Title: Aestra::Audio::TrackManager::addChannelWithId Pages: 1 -->
<svg width="356pt" height="86pt"
 viewBox="0.00 0.00 356.00 86.00" xmlns="http://www.w3.org/2000/svg" xmlns:xlink="http://www.w3.org/1999/xlink">
<g id="graph0" class="graph" transform="scale(1 1) rotate(0) translate(4 82)">
<title>Aestra::Audio::TrackManager::addChannelWithId</title>
<!-- Node1 -->
<g id="Node000001" class="node">
<title>Node1</title>
<g id="a_Node000001"><a xlink:title="Add a channel while restoring a persisted stable identity.">
<polygon fill="#999999" stroke="#666666" points="156,-54 0,-54 0,-24 156,-24 156,-54"/>
<text text-anchor="start" x="8" y="-42" font-family="Helvetica,sans-Serif" font-size="10.00">Aestra::Audio::TrackManager</text>
<text text-anchor="middle" x="78" y="-31" font-family="Helvetica,sans-Serif" font-size="10.00">::addChannelWithId</text>
</a>
</g>
</g>
<!-- Node2 -->
<g id="Node000002" class="node">
<title>Node2</title>
<g id="a_Node000002"><a xlink:href="../../de/dca/classAestra_1_1Audio_1_1TrackManager.html#a53fe3e0e1b269690efd09c6a74f467c0" target="_top" xlink:title="Get a track by zero&#45;based index.">
<polygon fill="white" stroke="#666666" points="348,-78 192,-78 192,-48 348,-48 348,-78"/>
<text text-anchor="start" x="200" y="-66" font-family="Helvetica,sans-Serif" font-size="10.00">Aestra::Audio::TrackManager</text>
<text text-anchor="middle" x="270" y="-55" font-family="Helvetica,sans-Serif" font-size="10.00">::getChannelById</text>
</a>
</g>
</g>
<!-- Node1&#45;&gt;Node2 -->
<g id="edge1_Node000001_Node000002" class="edge">
<title>Node1&#45;&gt;Node2</title>
<g id="a_edge1_Node000001_Node000002"><a xlink:title=" ">
<path fill="none" stroke="#63b8ff" d="M156.01,-48.73C164.51,-49.8 173.21,-50.9 181.83,-51.99"/>
<polygon fill="#63b8ff" stroke="#63b8ff" points="181.52,-55.48 191.88,-53.26 182.4,-48.53 181.52,-55.48"/>
</a>
</g>
</g>
<!-- Node3 -->
<g id="Node000003" class="node">
<title>Node3</title>
<g id="a_Node000003"><a xlink:href="../../de/dca/classAestra_1_1Audio_1_1TrackManager.html#a46d9c986c264576c28e32e061b81d877" target="_top" xlink:title="Request a non&#45;real&#45;time rebuild of the live playback graph.">
<polygon fill="white" stroke="#666666" points="348,-30 192,-30 192,0 348,0 348,-30"/>
<text text-anchor="start" x="200" y="-18" font-family="Helvetica,sans-Serif" font-size="10.00">Aestra::Audio::TrackManager</text>
<text text-anchor="middle" x="270" y="-7" font-family="Helvetica,sans-Serif" font-size="10.00">::requestAudioGraphRebuild</text>
</a>
</g>
</g>
<!-- Node1&#45;&gt;Node3 -->
<g id="edge2_Node000001_Node000003" class="edge">
<title>Node1&#45;&gt;Node3</title>
<g id="a_edge2_Node000001_Node000003"><a xlink:title=" ">
<path fill="none" stroke="#63b8ff" d="M156.01,-29.27C164.51,-28.2 173.21,-27.1 181.83,-26.01"/>
<polygon fill="#63b8ff" stroke="#63b8ff" points="182.4,-29.47 191.88,-24.74 181.52,-22.52 182.4,-29.47"/>
</a>
</g>
</g>
</g>
</svg>
