<?xml version="1.0" encoding="UTF-8" standalone="no"?>
<!DOCTYPE svg PUBLIC "-//W3C//DTD SVG 1.1//EN"
 "http://www.w3.org/Graphics/SVG/1.1/DTD/svg11.dtd">
<!-- Generated by graphviz version 2.43.0 (0)
 -->
<!-- Title: Aestra::Audio::TrackManager::getChannelById Pages: 1 -->
<!--zoomable 630 -->

<svg id="main" version="1.1" xmlns="http://www.w3.org/2000/svg" xmlns:xlink="http://www.w3.org/1999/xlink" xml:space="preserve" onload="init(evt)">
<style type="text/css"><![CDATA[
.node, .edge {opacity: 0.7;}
.node.selected, .edge.selected {opacity: 1;}
.edge:hover path { stroke: red; }
.edge:hover polygon { stroke: red; fill: red; }
]]></style>

<defs>
  <circle id="rim" cx="0" cy="0" r="7"/>
  <circle id="rim2" cx="0" cy="0" r="3.5"/>
  <g id="zoomPlus">
    <use xlink:href="#rim" fill="#404040"><set attributeName="fill" to="#808080" begin="zoomplus.mouseover" end="zoomplus.mouseout"/></use>
    <path d="M-4,0h8M0,-4v8" fill="none" stroke="white" stroke-width="1.5" pointer-events="none"/>
  </g>
  <g id="zoomMin">
    <use xlink:href="#rim" fill="#404040"><set attributeName="fill" to="#808080" begin="zoomminus.mouseover" end="zoomminus.mouseout"/></use>
    <path d="M-4,0h8" fill="none" stroke="white" stroke-width="1.5" pointer-events="none"/>
  </g>
  <g id="arrowUp" transform="translate(30 24)">
    <use xlink:href="#rim"/>
    <path pointer-events="none" fill="none" stroke="white" stroke-width="1.5" d="M0,-3.0v7 M-2.5,-0.5L0,-3.0L2.5,-0.5"/>
  </g>
  <g id="arrowRight" transform="rotate(90) translate(36 -43)">
    <use xlink:href="#rim"/>
    <path pointer-events="none" fill="none" stroke="white" stroke-width="1.5" d="M0,-3.0v7 M-2.5,-0.5L0,-3.0L2.5,-0.5"/>
  </g>
  <g id="arrowDown" transform="rotate(180) translate(-30 -48)">
    <use xlink:href="#rim"/>
    <path pointer-events="none" fill="none" stroke="white" stroke-width="1.5" d="M0,-3.0v7 M-2.5,-0.5L0,-3.0L2.5,-0.5"/>
  </g>
  <g id="arrowLeft" transform="rotate(270) translate(-36 17)">
    <use xlink:href="#rim"/>
    <path pointer-events="none" fill="none" stroke="white" stroke-width="1.5" d="M0,-3.0v7 M-2.5,-0.5L0,-3.0L2.5,-0.5"/>
  </g>
  <g id="resetDef">
    <use xlink:href="#rim2" fill="#404040"><set attributeName="fill" to="#808080" begin="reset.mouseover" end="reset.mouseout"/></use>
  </g>
</defs>
<script type="application/ecmascript">
var viewWidth = 815;
var viewHeight = 630;
var sectionId = 'dynsection-22';
</script>
<script type="application/ecmascript" xlink:href="../../svg.min.js"/>
<svg id="graph" class="graph">
<g id="viewport">
<title>Aestra::Audio::TrackManager::getChannelById</title>
<!-- Node1 -->
<g id="Node000001" class="node">
<title>Node1</title>
<g id="a_Node000001"><a xlink:title="Get a track by zero&#45;based index.">
<polygon fill="#999999" stroke="#666666" points="807,-318 651,-318 651,-288 807,-288 807,-318"/>
<text text-anchor="start" x="659" y="-306" font-family="Helvetica,sans-Serif" font-size="10.00">Aestra::Audio::TrackManager</text>
<text text-anchor="middle" x="729" y="-295" font-family="Helvetica,sans-Serif" font-size="10.00">::getChannelById</text>
</a>
</g>
</g>
<!-- Node2 -->
<g id="Node000002" class="node">
<title>Node2</title>
<g id="a_Node000002"><a xlink:href="../../de/dca/classAestra_1_1Audio_1_1TrackManager.html#a08ac8fbac914dbab6fc60ca7c8fc58a7" target="_top" xlink:title="Add a channel while restoring a persisted stable identity.">
<polygon fill="white" stroke="#666666" points="602.5,-576 446.5,-576 446.5,-546 602.5,-546 602.5,-576"/>
<text text-anchor="start" x="454.5" y="-564" font-family="Helvetica,sans-Serif" font-size="10.00">Aestra::Audio::TrackManager</text>
<text text-anchor="middle" x="524.5" y="-553" font-family="Helvetica,sans-Serif" font-size="10.00">::addChannelWithId</text>
</a>
</g>
</g>
<!-- Node1&#45;&gt;Node2 -->
<g id="edge1_Node000001_Node000002" class="edge">
<title>Node1&#45;&gt;Node2</title>
<g id="a_edge1_Node000001_Node000002"><a xlink:title=" ">
<path fill="none" stroke="#63b8ff" d="M722.51,-327.97C710.92,-374.82 679.56,-476.18 615,-532 608.45,-537.66 600.78,-542.22 592.73,-545.89"/>
<polygon fill="#63b8ff" stroke="#63b8ff" points="725.96,-328.6 724.86,-318.07 719.15,-326.99 725.96,-328.6"/>
</a>
</g>
</g>
<!-- Node6 -->
<g id="Node000006" class="node">
<title>Node6</title>
<g id="a_Node000006"><a xlink:href="../../de/dca/classAestra_1_1Audio_1_1TrackManager.html#a8e8a0ddb09f99d50dd977579c3a73086" target="_top" xlink:title="Whether routing source &#45;&gt; target is legal (Routing Contract D1).">
<polygon fill="white" stroke="#666666" points="602.5,-452 446.5,-452 446.5,-422 602.5,-422 602.5,-452"/>
<text text-anchor="start" x="454.5" y="-440" font-family="Helvetica,sans-Serif" font-size="10.00">Aestra::Audio::TrackManager</text>
<text text-anchor="middle" x="524.5" y="-429" font-family="Helvetica,sans-Serif" font-size="10.00">::canRouteTo</text>
</a>
</g>
</g>
<!-- Node1&#45;&gt;Node6 -->
<g id="edge5_Node000001_Node000006" class="edge">
<title>Node1&#45;&gt;Node6</title>
<g id="a_edge5_Node000001_Node000006"><a xlink:title=" ">
<path fill="none" stroke="#63b8ff" d="M708.92,-325.84C688.07,-349.46 652.59,-385.92 615,-408 605.56,-413.54 594.94,-418.17 584.39,-421.98"/>
<polygon fill="#63b8ff" stroke="#63b8ff" points="711.76,-327.91 715.67,-318.06 706.47,-323.32 711.76,-327.91"/>
</a>
</g>
</g>
<!-- Node7 -->
<g id="Node000007" class="node">
<title>Node7</title>
<g id="a_Node000007"><a xlink:href="../../d3/d13/classAestra_1_1Audio_1_1SetMainOutputCommand.html#a03204a262d4571e5b1141320d550756d" target="_top" xlink:title="Execute the command (first time)">
<polygon fill="white" stroke="#666666" points="388,-525 227,-525 227,-495 388,-495 388,-525"/>
<text text-anchor="start" x="235" y="-513" font-family="Helvetica,sans-Serif" font-size="10.00">Aestra::Audio::SetMainOutput</text>
<text text-anchor="middle" x="307.5" y="-502" font-family="Helvetica,sans-Serif" font-size="10.00">Command::execute</text>
</a>
</g>
</g>
<!-- Node1&#45;&gt;Node7 -->
<g id="edge12_Node000001_Node000007" class="edge">
<title>Node1&#45;&gt;Node7</title>
<g id="a_edge12_Node000001_Node000007"><a xlink:title=" ">
<path fill="none" stroke="#63b8ff" d="M721.02,-327.7C707.91,-369.03 675.3,-451.27 615,-488 546.88,-529.49 453.8,-530.02 388.13,-523.29"/>
<polygon fill="#63b8ff" stroke="#63b8ff" points="724.37,-328.71 723.94,-318.12 717.68,-326.67 724.37,-328.71"/>
</a>
</g>
</g>
<!-- Node9 -->
<g id="Node000009" class="node">
<title>Node9</title>
<g id="a_Node000009"><a xlink:href="../../d0/d48/classAestra_1_1Audio_1_1AddSendCommand.html#a4eaa9dd33e7dc8be649ddd105408771f" target="_top" xlink:title="Execute the command (first time)">
<polygon fill="white" stroke="#666666" points="398,-475 217,-475 217,-445 398,-445 398,-475"/>
<text text-anchor="start" x="225" y="-463" font-family="Helvetica,sans-Serif" font-size="10.00">Aestra::Audio::AddSendCommand</text>
<text text-anchor="middle" x="307.5" y="-452" font-family="Helvetica,sans-Serif" font-size="10.00">::execute</text>
</a>
</g>
</g>
<!-- Node1&#45;&gt;Node9 -->
<g id="edge13_Node000001_Node000009" class="edge">
<title>Node1&#45;&gt;Node9</title>
<g id="a_edge13_Node000001_Node000009"><a xlink:title=" ">
<path fill="none" stroke="#63b8ff" d="M718.9,-327.72C703.8,-364.65 669.69,-432.88 615,-461 535.97,-501.64 429.62,-488.83 365.22,-475.01"/>
<polygon fill="#63b8ff" stroke="#63b8ff" points="722.25,-328.78 722.66,-318.2 715.74,-326.21 722.25,-328.78"/>
</a>
</g>
</g>
<!-- Node11 -->
<g id="Node000011" class="node">
<title>Node11</title>
<g id="a_Node000011"><a xlink:href="../../dd/d34/classAestra_1_1Audio_1_1EditSendCommand.html#a4e26b3619d093ab5cb6f82ce53fb148c" target="_top" xlink:title="Execute the command (first time)">
<polygon fill="white" stroke="#666666" points="398,-423 217,-423 217,-393 398,-393 398,-423"/>
<text text-anchor="start" x="225" y="-411" font-family="Helvetica,sans-Serif" font-size="10.00">Aestra::Audio::EditSendCommand</text>
<text text-anchor="middle" x="307.5" y="-400" font-family="Helvetica,sans-Serif" font-size="10.00">::execute</text>
</a>
</g>
</g>
<!-- Node1&#45;&gt;Node11 -->
<g id="edge16_Node000001_Node000011" class="edge">
<title>Node1&#45;&gt;Node11</title>
<g id="a_edge16_Node000001_Node000011"><a xlink:title=" ">
<path fill="none" stroke="#63b8ff" d="M702.12,-324.44C680.32,-341.23 647.56,-363.58 615,-375 544.8,-399.62 460.47,-407.23 398.05,-409.05"/>
<polygon fill="#63b8ff" stroke="#63b8ff" points="704.5,-327.02 710.2,-318.09 700.17,-321.52 704.5,-327.02"/>
</a>
</g>
</g>
<!-- Node13 -->
<g id="Node000013" class="node">
<title>Node13</title>
<g id="a_Node000013"><a xlink:href="../../dd/db3/classAestra_1_1Audio_1_1RemoveSendCommand.html#a6babc85a621218163a01fdc6e19c7740" target="_top" xlink:title="Execute the command (first time)">
<polygon fill="white" stroke="#666666" points="600.5,-366 448.5,-366 448.5,-336 600.5,-336 600.5,-366"/>
<text text-anchor="start" x="456.5" y="-354" font-family="Helvetica,sans-Serif" font-size="10.00">Aestra::Audio::RemoveSend</text>
<text text-anchor="middle" x="524.5" y="-343" font-family="Helvetica,sans-Serif" font-size="10.00">Command::execute</text>
</a>
</g>
</g>
<!-- Node1&#45;&gt;Node13 -->
<g id="edge14_Node000001_Node000013" class="edge">
<title>Node1&#45;&gt;Node13</title>
<g id="a_edge14_Node000001_Node000013"><a xlink:title=" ">
<path fill="none" stroke="#63b8ff" d="M654.71,-320.37C633.12,-325.49 609.69,-331.04 588.79,-336"/>
<polygon fill="#63b8ff" stroke="#63b8ff" points="655.56,-323.77 664.48,-318.06 653.95,-316.96 655.56,-323.77"/>
</a>
</g>
</g>
<!-- Node15 -->
<g id="Node000015" class="node">
<title>Node15</title>
<g id="a_Node000015"><a xlink:href="../../de/dca/classAestra_1_1Audio_1_1TrackManager.html#a6871faaa658f9f26cd3ad5745173df5d" target="_top" xlink:title="Stable routing channel for a lane&#39;s automation defaults: lane → owning Track → track channelId (FD&#45;14...">
<polygon fill="white" stroke="#666666" points="602.5,-318 446.5,-318 446.5,-288 602.5,-288 602.5,-318"/>
<text text-anchor="start" x="454.5" y="-306" font-family="Helvetica,sans-Serif" font-size="10.00">Aestra::Audio::TrackManager</text>
<text text-anchor="middle" x="524.5" y="-295" font-family="Helvetica,sans-Serif" font-size="10.00">::resolveLaneChannelId</text>
</a>
</g>
</g>
<!-- Node1&#45;&gt;Node15 -->
<g id="edge17_Node000001_Node000015" class="edge">
<title>Node1&#45;&gt;Node15</title>
<g id="a_edge17_Node000001_Node000015"><a xlink:title=" ">
<path fill="none" stroke="#63b8ff" d="M640.8,-303C628.15,-303 615.19,-303 602.76,-303"/>
<polygon fill="#63b8ff" stroke="#63b8ff" points="640.87,-306.5 650.87,-303 640.87,-299.5 640.87,-306.5"/>
</a>
</g>
</g>
<!-- Node16 -->
<g id="Node000016" class="node">
<title>Node16</title>
<g id="a_Node000016"><a xlink:href="../../de/dca/classAestra_1_1Audio_1_1TrackManager.html#a4d54a269442ca4263c5bed22e8d0ef64" target="_top" xlink:title="Route an audio source pattern independently from Playlist placement.">
<polygon fill="white" stroke="#666666" points="608,-270 441,-270 441,-240 608,-240 608,-270"/>
<text text-anchor="start" x="449" y="-258" font-family="Helvetica,sans-Serif" font-size="10.00">Aestra::Audio::TrackManager</text>
<text text-anchor="middle" x="524.5" y="-247" font-family="Helvetica,sans-Serif" font-size="10.00">::setAudioPatternMixerChannel</text>
</a>
</g>
</g>
<!-- Node1&#45;&gt;Node16 -->
<g id="edge18_Node000001_Node000016" class="edge">
<title>Node1&#45;&gt;Node16</title>
<g id="a_edge18_Node000001_Node000016"><a xlink:title=" ">
<path fill="none" stroke="#63b8ff" d="M654.71,-285.63C633.12,-280.51 609.69,-274.96 588.79,-270"/>
<polygon fill="#63b8ff" stroke="#63b8ff" points="653.95,-289.04 664.48,-287.94 655.56,-282.23 653.95,-289.04"/>
</a>
</g>
</g>
<!-- Node20 -->
<g id="Node000020" class="node">
<title>Node20</title>
<g id="a_Node000020"><a xlink:href="../../da/d55/classAestra_1_1Audio_1_1DeleteTrackCommand.html#a14e5d96d52b157bd446590c4a6ab42ed" target="_top" xlink:title="Undo the command.">
<polygon fill="white" stroke="#666666" points="597.5,-222 451.5,-222 451.5,-192 597.5,-192 597.5,-222"/>
<text text-anchor="start" x="459.5" y="-210" font-family="Helvetica,sans-Serif" font-size="10.00">Aestra::Audio::DeleteTrack</text>
<text text-anchor="middle" x="524.5" y="-199" font-family="Helvetica,sans-Serif" font-size="10.00">Command::undo</text>
</a>
</g>
</g>
<!-- Node1&#45;&gt;Node20 -->
<g id="edge22_Node000001_Node000020" class="edge">
<title>Node1&#45;&gt;Node20</title>
<g id="a_edge22_Node000001_Node000020"><a xlink:title=" ">
<path fill="none" stroke="#63b8ff" d="M700,-281.72C677.93,-265.82 645.82,-244.57 615,-231 607.34,-227.63 599.1,-224.64 590.84,-222.01"/>
<polygon fill="#63b8ff" stroke="#63b8ff" points="698.1,-284.67 708.24,-287.74 702.23,-279.01 698.1,-284.67"/>
</a>
</g>
</g>
<!-- Node21 -->
<g id="Node000021" class="node">
<title>Node21</title>
<g id="a_Node000021"><a xlink:href="../../d3/d13/classAestra_1_1Audio_1_1SetMainOutputCommand.html#a95055243abe421693bb0e7081ba57714" target="_top" xlink:title="Undo the command.">
<polygon fill="white" stroke="#666666" points="605,-174 444,-174 444,-144 605,-144 605,-174"/>
<text text-anchor="start" x="452" y="-162" font-family="Helvetica,sans-Serif" font-size="10.00">Aestra::Audio::SetMainOutput</text>
<text text-anchor="middle" x="524.5" y="-151" font-family="Helvetica,sans-Serif" font-size="10.00">Command::undo</text>
</a>
</g>
</g>
<!-- Node1&#45;&gt;Node21 -->
<g id="edge23_Node000001_Node000021" class="edge">
<title>Node1&#45;&gt;Node21</title>
<g id="a_edge23_Node000001_Node000021"><a xlink:title=" ">
<path fill="none" stroke="#63b8ff" d="M712.32,-279.75C692.73,-252.5 656.67,-207.91 615,-183 609.2,-179.53 602.89,-176.56 596.41,-174.01"/>
<polygon fill="#63b8ff" stroke="#63b8ff" points="709.47,-281.78 718.09,-287.94 715.2,-277.75 709.47,-281.78"/>
</a>
</g>
</g>
<!-- Node22 -->
<g id="Node000022" class="node">
<title>Node22</title>
<g id="a_Node000022"><a xlink:href="../../d0/d48/classAestra_1_1Audio_1_1AddSendCommand.html#ad88ff0fbb47e816593e327a8fb733ec5" target="_top" xlink:title="Undo the command.">
<polygon fill="white" stroke="#666666" points="615,-126 434,-126 434,-96 615,-96 615,-126"/>
<text text-anchor="start" x="442" y="-114" font-family="Helvetica,sans-Serif" font-size="10.00">Aestra::Audio::AddSendCommand</text>
<text text-anchor="middle" x="524.5" y="-103" font-family="Helvetica,sans-Serif" font-size="10.00">::undo</text>
</a>
</g>
</g>
<!-- Node1&#45;&gt;Node22 -->
<g id="edge24_Node000001_Node000022" class="edge">
<title>Node1&#45;&gt;Node22</title>
<g id="a_edge24_Node000001_Node000022"><a xlink:title=" ">
<path fill="none" stroke="#63b8ff" d="M718.15,-278.26C702.17,-241.34 667.03,-172.17 615,-135 610.16,-131.54 604.84,-128.58 599.3,-126.04"/>
<polygon fill="#63b8ff" stroke="#63b8ff" points="715.05,-279.91 722.15,-287.77 721.5,-277.2 715.05,-279.91"/>
</a>
</g>
</g>
<!-- Node23 -->
<g id="Node000023" class="node">
<title>Node23</title>
<g id="a_Node000023"><a xlink:href="../../dd/db3/classAestra_1_1Audio_1_1RemoveSendCommand.html#aa486a126b7efb2d78542af7417c10ce8" target="_top" xlink:title="Undo the command.">
<polygon fill="white" stroke="#666666" points="600.5,-78 448.5,-78 448.5,-48 600.5,-48 600.5,-78"/>
<text text-anchor="start" x="456.5" y="-66" font-family="Helvetica,sans-Serif" font-size="10.00">Aestra::Audio::RemoveSend</text>
<text text-anchor="middle" x="524.5" y="-55" font-family="Helvetica,sans-Serif" font-size="10.00">Command::undo</text>
</a>
</g>
</g>
<!-- Node1&#45;&gt;Node23 -->
<g id="edge25_Node000001_Node000023" class="edge">
<title>Node1&#45;&gt;Node23</title>
<g id="a_edge25_Node000001_Node000023"><a xlink:title=" ">
<path fill="none" stroke="#63b8ff" d="M721.99,-277.86C709.84,-232.61 677.99,-137.46 615,-87 610.61,-83.48 605.74,-80.47 600.61,-77.91"/>
<polygon fill="#63b8ff" stroke="#63b8ff" points="718.65,-278.93 724.54,-287.74 725.43,-277.18 718.65,-278.93"/>
</a>
</g>
</g>
<!-- Node24 -->
<g id="Node000024" class="node">
<title>Node24</title>
<g id="a_Node000024"><a xlink:href="../../dd/d34/classAestra_1_1Audio_1_1EditSendCommand.html#a770147f512b6ef18bed33343b80e1932" target="_top" xlink:title="Undo the command.">
<polygon fill="white" stroke="#666666" points="615,-30 434,-30 434,0 615,0 615,-30"/>
<text text-anchor="start" x="442" y="-18" font-family="Helvetica,sans-Serif" font-size="10.00">Aestra::Audio::EditSendCommand</text>
<text text-anchor="middle" x="524.5" y="-7" font-family="Helvetica,sans-Serif" font-size="10.00">::undo</text>
</a>
</g>
</g>
<!-- Node1&#45;&gt;Node24 -->
<g id="edge26_Node000001_Node000024" class="edge">
<title>Node1&#45;&gt;Node24</title>
<g id="a_edge26_Node000001_Node000024"><a xlink:title=" ">
<path fill="none" stroke="#63b8ff" d="M724.58,-277.64C716.12,-224.97 689.21,-103.33 615,-39 611.11,-35.63 606.79,-32.72 602.22,-30.22"/>
<polygon fill="#63b8ff" stroke="#63b8ff" points="721.16,-278.42 726.12,-287.78 728.08,-277.37 721.16,-278.42"/>
</a>
</g>
</g>
<!-- Node3 -->
<g id="Node000003" class="node">
<title>Node3</title>
<g id="a_Node000003"><a xlink:href="../../de/dca/classAestra_1_1Audio_1_1TrackManager.html#ac8c006cf1d67aea3a2fdb1ca5e309f0c" target="_top" xlink:title="Add a new channel.">
<polygon fill="white" stroke="#666666" points="385.5,-576 229.5,-576 229.5,-546 385.5,-546 385.5,-576"/>
<text text-anchor="start" x="237.5" y="-564" font-family="Helvetica,sans-Serif" font-size="10.00">Aestra::Audio::TrackManager</text>
<text text-anchor="middle" x="307.5" y="-553" font-family="Helvetica,sans-Serif" font-size="10.00">::addChannel</text>
</a>
</g>
</g>
<!-- Node2&#45;&gt;Node3 -->
<g id="edge2_Node000002_Node000003" class="edge">
<title>Node2&#45;&gt;Node3</title>
<g id="a_edge2_Node000002_Node000003"><a xlink:title=" ">
<path fill="none" stroke="#63b8ff" d="M436.18,-561C419.46,-561 402.07,-561 385.7,-561"/>
<polygon fill="#63b8ff" stroke="#63b8ff" points="436.49,-564.5 446.49,-561 436.49,-557.5 436.49,-564.5"/>
</a>
</g>
</g>
<!-- Node4 -->
<g id="Node000004" class="node">
<title>Node4</title>
<g id="a_Node000004"><a xlink:href="../../d4/d73/classAestra_1_1Audio_1_1AddChannelCommand.html#a4439b06fc72f0560a8277aed0e34eda9" target="_top" xlink:title="Add the channel if the command has not been executed yet.">
<polygon fill="white" stroke="#666666" points="163.5,-574 17.5,-574 17.5,-544 163.5,-544 163.5,-574"/>
<text text-anchor="start" x="25.5" y="-562" font-family="Helvetica,sans-Serif" font-size="10.00">Aestra::Audio::AddChannel</text>
<text text-anchor="middle" x="90.5" y="-551" font-family="Helvetica,sans-Serif" font-size="10.00">Command::execute</text>
</a>
</g>
</g>
<!-- Node3&#45;&gt;Node4 -->
<g id="edge3_Node000003_Node000004" class="edge">
<title>Node3&#45;&gt;Node4</title>
<g id="a_edge3_Node000003_Node000004"><a xlink:title=" ">
<path fill="none" stroke="#63b8ff" d="M219.32,-560.19C200.84,-560.02 181.52,-559.84 163.67,-559.67"/>
<polygon fill="#63b8ff" stroke="#63b8ff" points="219.46,-563.69 229.49,-560.28 219.52,-556.69 219.46,-563.69"/>
</a>
</g>
</g>
<!-- Node5 -->
<g id="Node000005" class="node">
<title>Node5</title>
<g id="a_Node000005"><a xlink:href="../../d4/d73/classAestra_1_1Audio_1_1AddChannelCommand.html#ac9f3ce440ca3815801bf7378d29dcc80" target="_top" xlink:title="Put the same channel back after an undo.">
<polygon fill="white" stroke="#666666" points="163.5,-622 17.5,-622 17.5,-592 163.5,-592 163.5,-622"/>
<text text-anchor="start" x="25.5" y="-610" font-family="Helvetica,sans-Serif" font-size="10.00">Aestra::Audio::AddChannel</text>
<text text-anchor="middle" x="90.5" y="-599" font-family="Helvetica,sans-Serif" font-size="10.00">Command::redo</text>
</a>
</g>
</g>
<!-- Node3&#45;&gt;Node5 -->
<g id="edge4_Node000003_Node000005" class="edge">
<title>Node3&#45;&gt;Node5</title>
<g id="a_edge4_Node000003_Node000005"><a xlink:title=" ">
<path fill="none" stroke="#63b8ff" d="M226.16,-578.19C204.98,-582.72 182.29,-587.57 161.69,-591.98"/>
<polygon fill="#63b8ff" stroke="#63b8ff" points="227.05,-581.58 236.1,-576.06 225.59,-574.73 227.05,-581.58"/>
</a>
</g>
</g>
<!-- Node6&#45;&gt;Node7 -->
<g id="edge6_Node000006_Node000007" class="edge">
<title>Node6&#45;&gt;Node7</title>
<g id="a_edge6_Node000006_Node000007"><a xlink:title=" ">
<path fill="none" stroke="#63b8ff" d="M476.25,-455.66C452.86,-464.65 424.1,-475.33 398,-484 386.64,-487.77 374.36,-491.54 362.66,-494.98"/>
<polygon fill="#63b8ff" stroke="#63b8ff" points="477.53,-458.92 485.6,-452.05 475.01,-452.39 477.53,-458.92"/>
</a>
</g>
</g>
<!-- Node6&#45;&gt;Node9 -->
<g id="edge8_Node000006_Node000009" class="edge">
<title>Node6&#45;&gt;Node9</title>
<g id="a_edge8_Node000006_Node000009"><a xlink:title=" ">
<path fill="none" stroke="#63b8ff" d="M436.46,-446.31C423.84,-447.66 410.83,-449.05 398.16,-450.41"/>
<polygon fill="#63b8ff" stroke="#63b8ff" points="436.92,-449.78 446.49,-445.24 436.17,-442.82 436.92,-449.78"/>
</a>
</g>
</g>
<!-- Node6&#45;&gt;Node11 -->
<g id="edge10_Node000006_Node000011" class="edge">
<title>Node6&#45;&gt;Node11</title>
<g id="a_edge10_Node000006_Node000011"><a xlink:title=" ">
<path fill="none" stroke="#63b8ff" d="M436.46,-425.26C423.84,-423.56 410.83,-421.8 398.16,-420.09"/>
<polygon fill="#63b8ff" stroke="#63b8ff" points="436.11,-428.74 446.49,-426.61 437.04,-421.81 436.11,-428.74"/>
</a>
</g>
</g>
<!-- Node8 -->
<g id="Node000008" class="node">
<title>Node8</title>
<g id="a_Node000008"><a xlink:href="../../d3/d13/classAestra_1_1Audio_1_1SetMainOutputCommand.html#a3d74877f75793de023535d75e9887ef7" target="_top" xlink:title="Redo the command (must be explicitly implemented) Implementers should consider: is redo() exactly exe...">
<polygon fill="white" stroke="#666666" points="171,-525 10,-525 10,-495 171,-495 171,-525"/>
<text text-anchor="start" x="18" y="-513" font-family="Helvetica,sans-Serif" font-size="10.00">Aestra::Audio::SetMainOutput</text>
<text text-anchor="middle" x="90.5" y="-502" font-family="Helvetica,sans-Serif" font-size="10.00">Command::redo</text>
</a>
</g>
</g>
<!-- Node7&#45;&gt;Node8 -->
<g id="edge7_Node000007_Node000008" class="edge">
<title>Node7&#45;&gt;Node8</title>
<g id="a_edge7_Node000007_Node000008"><a xlink:title=" ">
<path fill="none" stroke="#63b8ff" d="M216.43,-510C201.39,-510 185.88,-510 171.12,-510"/>
<polygon fill="#63b8ff" stroke="#63b8ff" points="216.75,-513.5 226.75,-510 216.75,-506.5 216.75,-513.5"/>
</a>
</g>
</g>
<!-- Node10 -->
<g id="Node000010" class="node">
<title>Node10</title>
<g id="a_Node000010"><a xlink:href="../../d0/d48/classAestra_1_1Audio_1_1AddSendCommand.html#a6e0a6e323a4ea8c9eb2f1d7788676c42" target="_top" xlink:title="Redo the command (must be explicitly implemented) Implementers should consider: is redo() exactly exe...">
<polygon fill="white" stroke="#666666" points="181,-475 0,-475 0,-445 181,-445 181,-475"/>
<text text-anchor="start" x="8" y="-463" font-family="Helvetica,sans-Serif" font-size="10.00">Aestra::Audio::AddSendCommand</text>
<text text-anchor="middle" x="90.5" y="-452" font-family="Helvetica,sans-Serif" font-size="10.00">::redo</text>
</a>
</g>
</g>
<!-- Node9&#45;&gt;Node10 -->
<g id="edge9_Node000009_Node000010" class="edge">
<title>Node9&#45;&gt;Node10</title>
<g id="a_edge9_Node000009_Node000010"><a xlink:title=" ">
<path fill="none" stroke="#63b8ff" d="M206.63,-460C198.19,-460 189.68,-460 181.32,-460"/>
<polygon fill="#63b8ff" stroke="#63b8ff" points="206.88,-463.5 216.88,-460 206.88,-456.5 206.88,-463.5"/>
</a>
</g>
</g>
<!-- Node12 -->
<g id="Node000012" class="node">
<title>Node12</title>
<g id="a_Node000012"><a xlink:href="../../dd/d34/classAestra_1_1Audio_1_1EditSendCommand.html#a00463bbb3bdf85217a261001d5996610" target="_top" xlink:title="Redo the command (must be explicitly implemented) Implementers should consider: is redo() exactly exe...">
<polygon fill="white" stroke="#666666" points="181,-423 0,-423 0,-393 181,-393 181,-423"/>
<text text-anchor="start" x="8" y="-411" font-family="Helvetica,sans-Serif" font-size="10.00">Aestra::Audio::EditSendCommand</text>
<text text-anchor="middle" x="90.5" y="-400" font-family="Helvetica,sans-Serif" font-size="10.00">::redo</text>
</a>
</g>
</g>
<!-- Node11&#45;&gt;Node12 -->
<g id="edge11_Node000011_Node000012" class="edge">
<title>Node11&#45;&gt;Node12</title>
<g id="a_edge11_Node000011_Node000012"><a xlink:title=" ">
<path fill="none" stroke="#63b8ff" d="M206.63,-408C198.19,-408 189.68,-408 181.32,-408"/>
<polygon fill="#63b8ff" stroke="#63b8ff" points="206.88,-411.5 216.88,-408 206.88,-404.5 206.88,-411.5"/>
</a>
</g>
</g>
<!-- Node14 -->
<g id="Node000014" class="node">
<title>Node14</title>
<g id="a_Node000014"><a xlink:href="../../dd/db3/classAestra_1_1Audio_1_1RemoveSendCommand.html#a1b897b2d526bc8eafaf36c2ee23100ee" target="_top" xlink:title="Redo the command (must be explicitly implemented) Implementers should consider: is redo() exactly exe...">
<polygon fill="white" stroke="#666666" points="383.5,-366 231.5,-366 231.5,-336 383.5,-336 383.5,-366"/>
<text text-anchor="start" x="239.5" y="-354" font-family="Helvetica,sans-Serif" font-size="10.00">Aestra::Audio::RemoveSend</text>
<text text-anchor="middle" x="307.5" y="-343" font-family="Helvetica,sans-Serif" font-size="10.00">Command::redo</text>
</a>
</g>
</g>
<!-- Node13&#45;&gt;Node14 -->
<g id="edge15_Node000013_Node000014" class="edge">
<title>Node13&#45;&gt;Node14</title>
<g id="a_edge15_Node000013_Node000014"><a xlink:title=" ">
<path fill="none" stroke="#63b8ff" d="M438.11,-351C420.11,-351 401.25,-351 383.65,-351"/>
<polygon fill="#63b8ff" stroke="#63b8ff" points="438.3,-354.5 448.3,-351 438.3,-347.5 438.3,-354.5"/>
</a>
</g>
</g>
<!-- Node17 -->
<g id="Node000017" class="node">
<title>Node17</title>
<g id="a_Node000017"><a xlink:href="../../d3/dfe/classAestra_1_1Audio_1_1SetAudioPatternMixerChannelCommand.html#a8dda8e69e7f016b4c164faaa39f8dd99" target="_top" xlink:title="Execute the command (first time)">
<polygon fill="white" stroke="#666666" points="396.5,-318 218.5,-318 218.5,-288 396.5,-288 396.5,-318"/>
<text text-anchor="start" x="226.5" y="-306" font-family="Helvetica,sans-Serif" font-size="10.00">Aestra::Audio::SetAudioPattern</text>
<text text-anchor="middle" x="307.5" y="-295" font-family="Helvetica,sans-Serif" font-size="10.00">MixerChannelCommand::execute</text>
</a>
</g>
</g>
<!-- Node16&#45;&gt;Node17 -->
<g id="edge19_Node000016_Node000017" class="edge">
<title>Node16&#45;&gt;Node17</title>
<g id="a_edge19_Node000016_Node000017"><a xlink:title=" ">
<path fill="none" stroke="#63b8ff" d="M446,-272.3C422.99,-277.44 397.99,-283.02 375.7,-288"/>
<polygon fill="#63b8ff" stroke="#63b8ff" points="447.07,-275.65 456.06,-270.06 445.54,-268.82 447.07,-275.65"/>
</a>
</g>
</g>
<!-- Node18 -->
<g id="Node000018" class="node">
<title>Node18</title>
<g id="a_Node000018"><a xlink:href="../../d3/dfe/classAestra_1_1Audio_1_1SetAudioPatternMixerChannelCommand.html#a80109cb1b71b1d2c214809c2d2454e5a" target="_top" xlink:title="Redo the command (must be explicitly implemented) Implementers should consider: is redo() exactly exe...">
<polygon fill="white" stroke="#666666" points="390.5,-270 224.5,-270 224.5,-240 390.5,-240 390.5,-270"/>
<text text-anchor="start" x="232.5" y="-258" font-family="Helvetica,sans-Serif" font-size="10.00">Aestra::Audio::SetAudioPattern</text>
<text text-anchor="middle" x="307.5" y="-247" font-family="Helvetica,sans-Serif" font-size="10.00">MixerChannelCommand::redo</text>
</a>
</g>
</g>
<!-- Node16&#45;&gt;Node18 -->
<g id="edge20_Node000016_Node000018" class="edge">
<title>Node16&#45;&gt;Node18</title>
<g id="a_edge20_Node000016_Node000018"><a xlink:title=" ">
<path fill="none" stroke="#63b8ff" d="M430.87,-255C417.54,-255 403.9,-255 390.79,-255"/>
<polygon fill="#63b8ff" stroke="#63b8ff" points="430.99,-258.5 440.99,-255 430.99,-251.5 430.99,-258.5"/>
</a>
</g>
</g>
<!-- Node19 -->
<g id="Node000019" class="node">
<title>Node19</title>
<g id="a_Node000019"><a xlink:href="../../d3/dfe/classAestra_1_1Audio_1_1SetAudioPatternMixerChannelCommand.html#ae97dcd11075ce2847a6fd66e7d573fad" target="_top" xlink:title="Undo the command.">
<polygon fill="white" stroke="#666666" points="390.5,-222 224.5,-222 224.5,-192 390.5,-192 390.5,-222"/>
<text text-anchor="start" x="232.5" y="-210" font-family="Helvetica,sans-Serif" font-size="10.00">Aestra::Audio::SetAudioPattern</text>
<text text-anchor="middle" x="307.5" y="-199" font-family="Helvetica,sans-Serif" font-size="10.00">MixerChannelCommand::undo</text>
</a>
</g>
</g>
<!-- Node16&#45;&gt;Node19 -->
<g id="edge21_Node000016_Node000019" class="edge">
<title>Node16&#45;&gt;Node19</title>
<g id="a_edge21_Node000016_Node000019"><a xlink:title=" ">
<path fill="none" stroke="#63b8ff" d="M446,-237.7C422.99,-232.56 397.99,-226.98 375.7,-222"/>
<polygon fill="#63b8ff" stroke="#63b8ff" points="445.54,-241.18 456.06,-239.94 447.07,-234.35 445.54,-241.18"/>
</a>
</g>
</g>
</g>
</svg>

<g id="navigator" transform="translate(0 0)" fill="#404254">
  <rect fill="#f2f5e9" fill-opacity="0.5" stroke="#606060" stroke-width=".5" x="0" y="0" width="60" height="60"/>
  <use id="zoomplus" xlink:href="#zoomPlus" x="17" y="9" onmousedown="handleZoom(evt,'in')"/>
  <use id="zoomminus" xlink:href="#zoomMin" x="42" y="9" onmousedown="handleZoom(evt,'out')"/>
  <use id="reset" xlink:href="#resetDef" x="30" y="36" onmousedown="handleReset()"/>
   <use id="arrowup" xlink:href="#arrowUp" x="0" y="0" onmousedown="handlePan(0,-1)"/>
  <use id="arrowright" xlink:href="#arrowRight" x="0" y="0" onmousedown="handlePan(1,0)"/>
  <use id="arrowdown" xlink:href="#arrowDown" x="0" y="0" onmousedown="handlePan(0,1)"/>
  <use id="arrowleft" xlink:href="#arrowLeft" x="0" y="0" onmousedown="handlePan(-1,0)"/>
</g>
<svg viewBox="0 0 15 15" width="100%" height="30px" preserveAspectRatio="xMaxYMin meet">
 <g id="arrow_out" transform="scale(0.3 0.3)">
  <a xlink:href="classAestra_1_1Audio_1_1TrackManager_a53fe3e0e1b269690efd09c6a74f467c0_icgraph_org.svg" target="_base">
   <rect id="button" ry="5" rx="5" y="6" x="6" height="38" width="38"
        fill="#f2f5e9" fill-opacity="0.5" stroke="#606060" stroke-width="1.0"/>
   <path id="arrow"
     d="M 11.500037,31.436501 C 11.940474,20.09759 22.043105,11.32322 32.158766,21.979434 L 37.068811,17.246167 C 37.068811,17.246167 37.088388,32 37.088388,32 L 22.160133,31.978069 C 22.160133,31.978069 26.997745,27.140456 26.997745,27.140456 C 18.528582,18.264221 13.291696,25.230495 11.500037,31.436501 z"
     style="fill:#404040;"/>
  </a>
 </g>
</svg>

<style type='text/css'>
<![CDATA[
[data-mouse-over-selected='false'] { opacity: 0.7; }
[data-mouse-over-selected='true']  { opacity: 1.0; }
]]>
</style>
<script type="application/ecmascript"><![CDATA[
document.addEventListener('DOMContentLoaded', (event) => {
  highlightEdges();
  highlightAdjacentNodes();
});
]]></script>
</svg>
