<?xml version="1.0" encoding="UTF-8" standalone="no"?>
<!DOCTYPE svg PUBLIC "-//W3C//DTD SVG 1.1//EN"
 "http://www.w3.org/Graphics/SVG/1.1/DTD/svg11.dtd">
<!-- Generated by graphviz version 2.43.0 (0)
 -->
<!-- Title: AestraUI::UIMixerButtonRow Pages: 1 -->
<!--zoomable 215 -->

<svg id="main" version="1.1" xmlns="http://www.w3.org/2000/svg" xmlns:xlink="http://www.w3.org/1999/xlink" xml:space="preserve" onload="init(evt)">
<style type="text/css"><![CDATA[
.node, .edge {opacity: 0.7;}
.node.selected, .edge.selected {opacity: 1;}
.edge:hover path { stroke: red; }
.edge:hover polygon { stroke: red; fill: red; }
]]></style>

<defs>
  <circle id="rim" cx="0" cy="0" r="7"/>
  <circle id="rim2" cx="0" cy="0" r="3.5"/>
  <g id="zoomPlus">
    <use xlink:href="#rim" fill="#404040"><set attributeName="fill" to="#808080" begin="zoomplus.mouseover" end="zoomplus.mouseout"/></use>
    <path d="M-4,0h8M0,-4v8" fill="none" stroke="white" stroke-width="1.5" pointer-events="none"/>
  </g>
  <g id="zoomMin">
    <use xlink:href="#rim" fill="#404040"><set attributeName="fill" to="#808080" begin="zoomminus.mouseover" end="zoomminus.mouseout"/></use>
    <path d="M-4,0h8" fill="none" stroke="white" stroke-width="1.5" pointer-events="none"/>
  </g>
  <g id="arrowUp" transform="translate(30 24)">
    <use xlink:href="#rim"/>
    <path pointer-events="none" fill="none" stroke="white" stroke-width="1.5" d="M0,-3.0v7 M-2.5,-0.5L0,-3.0L2.5,-0.5"/>
  </g>
  <g id="arrowRight" transform="rotate(90) translate(36 -43)">
    <use xlink:href="#rim"/>
    <path pointer-events="none" fill="none" stroke="white" stroke-width="1.5" d="M0,-3.0v7 M-2.5,-0.5L0,-3.0L2.5,-0.5"/>
  </g>
  <g id="arrowDown" transform="rotate(180) translate(-30 -48)">
    <use xlink:href="#rim"/>
    <path pointer-events="none" fill="none" stroke="white" stroke-width="1.5" d="M0,-3.0v7 M-2.5,-0.5L0,-3.0L2.5,-0.5"/>
  </g>
  <g id="arrowLeft" transform="rotate(270) translate(-36 17)">
    <use xlink:href="#rim"/>
    <path pointer-events="none" fill="none" stroke="white" stroke-width="1.5" d="M0,-3.0v7 M-2.5,-0.5L0,-3.0L2.5,-0.5"/>
  </g>
  <g id="resetDef">
    <use xlink:href="#rim2" fill="#404040"><set attributeName="fill" to="#808080" begin="reset.mouseover" end="reset.mouseout"/></use>
  </g>
</defs>
<script type="application/ecmascript">
var viewWidth = 731;
var viewHeight = 215;
var sectionId = 'dynsection-1';
</script>
<script type="application/ecmascript" xlink:href="../../svg.min.js"/>
<svg id="graph" class="graph">
<g id="viewport">
<title>AestraUI::UIMixerButtonRow</title>
<!-- Node1 -->
<g id="Node000001" class="node">
<title>Node1</title>
<g id="a_Node000001"><a xlink:title="Compact M/S/R button row for mixer strips.">
<polygon fill="#999999" stroke="#666666" points="723,-83 568,-83 568,-64 723,-64 723,-83"/>
<text text-anchor="middle" x="645.5" y="-71" font-family="Helvetica,sans-Serif" font-size="10.00">AestraUI::UIMixerButtonRow</text>
</a>
</g>
</g>
<!-- Node2 -->
<g id="Node000002" class="node">
<title>Node2</title>
<g id="a_Node000002"><a xlink:href="../../db/d1a/classAestraUI_1_1NUIComponent.html" target="_top" xlink:title="Base class for all UI components in the Aestra UI framework.">
<polygon fill="white" stroke="#666666" points="416,-142 277,-142 277,-123 416,-123 416,-142"/>
<text text-anchor="middle" x="346.5" y="-130" font-family="Helvetica,sans-Serif" font-size="10.00">AestraUI::NUIComponent</text>
</a>
</g>
</g>
<!-- Node2&#45;&gt;Node1 -->
<g id="edge1_Node000001_Node000002" class="edge">
<title>Node2&#45;&gt;Node1</title>
<g id="a_edge1_Node000001_Node000002"><a xlink:title=" ">
<path fill="none" stroke="#63b8ff" d="M426.82,-131.32C464.6,-129.27 510.13,-124.64 550,-114.5 578.08,-107.36 608.46,-92.84 626.99,-83.14"/>
<polygon fill="#63b8ff" stroke="#63b8ff" points="426.19,-127.85 416.38,-131.83 426.54,-134.84 426.19,-127.85"/>
</a>
</g>
</g>
<!-- Node3 -->
<g id="Node000003" class="node">
<title>Node3</title>
<g id="a_Node000003"><a xlink:title=" ">
<polygon fill="white" stroke="#bfbfbf" points="165,-206.5 0,-206.5 0,-176.5 165,-176.5 165,-206.5"/>
<text text-anchor="start" x="8" y="-194.5" font-family="Helvetica,sans-Serif" font-size="10.00">std::enable_shared</text>
<text text-anchor="middle" x="82.5" y="-183.5" font-family="Helvetica,sans-Serif" font-size="10.00">_from_this&lt; NUIComponent &gt;</text>
</a>
</g>
</g>
<!-- Node3&#45;&gt;Node2 -->
<g id="edge2_Node000002_Node000003" class="edge">
<title>Node3&#45;&gt;Node2</title>
<g id="a_edge2_Node000002_Node000003"><a xlink:title=" ">
<path fill="none" stroke="#63b8ff" d="M175.42,-191.08C202.73,-189.12 232.43,-185.13 259,-177.5 286.33,-169.65 315.04,-152.72 331.55,-142.01"/>
<polygon fill="#63b8ff" stroke="#63b8ff" points="174.84,-187.61 165.09,-191.74 175.29,-194.6 174.84,-187.61"/>
</a>
</g>
</g>
<!-- Node4 -->
<g id="Node000004" class="node">
<title>Node4</title>
<g id="a_Node000004"><a xlink:title=" ">
<polygon fill="white" stroke="#bfbfbf" points="142.5,-147.5 22.5,-147.5 22.5,-117.5 142.5,-117.5 142.5,-147.5"/>
<text text-anchor="start" x="30.5" y="-135.5" font-family="Helvetica,sans-Serif" font-size="10.00">function&lt; void(const</text>
<text text-anchor="middle" x="82.5" y="-124.5" font-family="Helvetica,sans-Serif" font-size="10.00"> NUIMouseEvent &amp;)&gt;</text>
</a>
</g>
</g>
<!-- Node4&#45;&gt;Node2 -->
<g id="edge3_Node000002_Node000004" class="edge">
<title>Node4&#45;&gt;Node2</title>
<g id="a_edge3_Node000002_Node000004"><a xlink:title=" ">
<path fill="none" stroke="#9a32cd" stroke-dasharray="5,2" d="M152.68,-132.5C191.04,-132.5 238.58,-132.5 276.86,-132.5"/>
<polygon fill="#9a32cd" stroke="#9a32cd" points="152.62,-129 142.62,-132.5 152.62,-136 152.62,-129"/>
</a>
</g>
<text text-anchor="middle" x="221" y="-168.5" font-family="Helvetica,sans-Serif" font-size="10.00" fill="grey"> onMouseDown</text>
<text text-anchor="middle" x="221" y="-157.5" font-family="Helvetica,sans-Serif" font-size="10.00" fill="grey">onMouseMove</text>
<text text-anchor="middle" x="221" y="-146.5" font-family="Helvetica,sans-Serif" font-size="10.00" fill="grey">onMouseUp</text>
<text text-anchor="middle" x="221" y="-135.5" font-family="Helvetica,sans-Serif" font-size="10.00" fill="grey">onMouseWheel</text>
</g>
<!-- Node5 -->
<g id="Node000005" class="node">
<title>Node5</title>
<g id="a_Node000005"><a xlink:title=" ">
<polygon fill="white" stroke="#bfbfbf" points="142,-99.5 23,-99.5 23,-69.5 142,-69.5 142,-99.5"/>
<text text-anchor="start" x="31" y="-87.5" font-family="Helvetica,sans-Serif" font-size="10.00">function&lt; void(const</text>
<text text-anchor="middle" x="82.5" y="-76.5" font-family="Helvetica,sans-Serif" font-size="10.00"> NUIKeyEvent &amp;)&gt;</text>
</a>
</g>
</g>
<!-- Node5&#45;&gt;Node2 -->
<g id="edge4_Node000002_Node000005" class="edge">
<title>Node5&#45;&gt;Node2</title>
<g id="a_edge4_Node000002_Node000005"><a xlink:title=" ">
<path fill="none" stroke="#9a32cd" stroke-dasharray="5,2" d="M152.43,-88.44C185.16,-91.5 224.57,-96.92 259,-106.5 267.43,-108.85 268.74,-111.6 277,-114.5 285.82,-117.6 295.44,-120.44 304.6,-122.91"/>
<polygon fill="#9a32cd" stroke="#9a32cd" points="152.31,-84.92 142.05,-87.53 151.7,-91.89 152.31,-84.92"/>
</a>
</g>
<text text-anchor="middle" x="221" y="-120.5" font-family="Helvetica,sans-Serif" font-size="10.00" fill="grey"> onKeyDown</text>
<text text-anchor="middle" x="221" y="-109.5" font-family="Helvetica,sans-Serif" font-size="10.00" fill="grey">onKeyUp</text>
</g>
<!-- Node6 -->
<g id="Node000006" class="node">
<title>Node6</title>
<g id="a_Node000006"><a xlink:title=" ">
<polygon fill="white" stroke="#bfbfbf" points="409,-105 284,-105 284,-86 409,-86 409,-105"/>
<text text-anchor="middle" x="346.5" y="-93" font-family="Helvetica,sans-Serif" font-size="10.00">function&lt; void(bool)&gt;</text>
</a>
</g>
</g>
<!-- Node6&#45;&gt;Node1 -->
<g id="edge5_Node000001_Node000006" class="edge">
<title>Node6&#45;&gt;Node1</title>
<g id="a_edge5_Node000001_Node000006"><a xlink:title=" ">
<path fill="none" stroke="#9a32cd" stroke-dasharray="5,2" d="M419.01,-90.2C464.02,-86.87 522.06,-82.57 567.98,-79.17"/>
<polygon fill="#9a32cd" stroke="#9a32cd" points="418.75,-86.71 409.04,-90.94 419.27,-93.69 418.75,-86.71"/>
</a>
</g>
<text text-anchor="middle" x="492" y="-102.5" font-family="Helvetica,sans-Serif" font-size="10.00" fill="grey"> onMonitorToggled</text>
<text text-anchor="middle" x="492" y="-91.5" font-family="Helvetica,sans-Serif" font-size="10.00" fill="grey">onMuteToggled</text>
</g>
<!-- Node7 -->
<g id="Node000007" class="node">
<title>Node7</title>
<g id="a_Node000007"><a xlink:title=" ">
<polygon fill="white" stroke="#bfbfbf" points="404.5,-67.5 288.5,-67.5 288.5,-37.5 404.5,-37.5 404.5,-67.5"/>
<text text-anchor="start" x="296.5" y="-55.5" font-family="Helvetica,sans-Serif" font-size="10.00">function&lt; void(bool,</text>
<text text-anchor="middle" x="346.5" y="-44.5" font-family="Helvetica,sans-Serif" font-size="10.00"> NUIModifiers)&gt;</text>
</a>
</g>
</g>
<!-- Node7&#45;&gt;Node1 -->
<g id="edge6_Node000001_Node000007" class="edge">
<title>Node7&#45;&gt;Node1</title>
<g id="a_edge6_Node000001_Node000007"><a xlink:title=" ">
<path fill="none" stroke="#9a32cd" stroke-dasharray="5,2" d="M414.77,-54.7C454.21,-56.27 504.98,-58.77 550,-62.5 555.84,-62.98 561.88,-63.55 567.95,-64.15"/>
<polygon fill="#9a32cd" stroke="#9a32cd" points="414.87,-51.2 404.74,-54.31 414.6,-58.2 414.87,-51.2"/>
</a>
</g>
<text text-anchor="middle" x="492" y="-65.5" font-family="Helvetica,sans-Serif" font-size="10.00" fill="grey"> onSoloToggled</text>
</g>
<!-- Node8 -->
<g id="Node000008" class="node">
<title>Node8</title>
<g id="a_Node000008"><a xlink:title=" ">
<polygon fill="white" stroke="#bfbfbf" points="398.5,-19 294.5,-19 294.5,0 398.5,0 398.5,-19"/>
<text text-anchor="middle" x="346.5" y="-7" font-family="Helvetica,sans-Serif" font-size="10.00">function&lt; void()&gt;</text>
</a>
</g>
</g>
<!-- Node8&#45;&gt;Node1 -->
<g id="edge7_Node000001_Node000008" class="edge">
<title>Node8&#45;&gt;Node1</title>
<g id="a_edge7_Node000001_Node000008"><a xlink:title=" ">
<path fill="none" stroke="#9a32cd" stroke-dasharray="5,2" d="M408.72,-16.42C449.17,-21.67 503.17,-29.96 550,-41.5 574.22,-47.47 601.09,-56.85 619.97,-63.91"/>
<polygon fill="#9a32cd" stroke="#9a32cd" points="409.1,-12.94 398.74,-15.15 408.22,-19.89 409.1,-12.94"/>
</a>
</g>
<text text-anchor="middle" x="492" y="-44.5" font-family="Helvetica,sans-Serif" font-size="10.00" fill="grey"> onInvalidateRequested</text>
</g>
</g>
</svg>

<g id="navigator" transform="translate(0 0)" fill="#404254">
  <rect fill="#f2f5e9" fill-opacity="0.5" stroke="#606060" stroke-width=".5" x="0" y="0" width="60" height="60"/>
  <use id="zoomplus" xlink:href="#zoomPlus" x="17" y="9" onmousedown="handleZoom(evt,'in')"/>
  <use id="zoomminus" xlink:href="#zoomMin" x="42" y="9" onmousedown="handleZoom(evt,'out')"/>
  <use id="reset" xlink:href="#resetDef" x="30" y="36" onmousedown="handleReset()"/>
   <use id="arrowup" xlink:href="#arrowUp" x="0" y="0" onmousedown="handlePan(0,-1)"/>
  <use id="arrowright" xlink:href="#arrowRight" x="0" y="0" onmousedown="handlePan(1,0)"/>
  <use id="arrowdown" xlink:href="#arrowDown" x="0" y="0" onmousedown="handlePan(0,1)"/>
  <use id="arrowleft" xlink:href="#arrowLeft" x="0" y="0" onmousedown="handlePan(-1,0)"/>
</g>
<svg viewBox="0 0 15 15" width="100%" height="30px" preserveAspectRatio="xMaxYMin meet">
 <g id="arrow_out" transform="scale(0.3 0.3)">
  <a xlink:href="classAestraUI_1_1UIMixerButtonRow__coll__graph_org.svg" target="_base">
   <rect id="button" ry="5" rx="5" y="6" x="6" height="38" width="38"
        fill="#f2f5e9" fill-opacity="0.5" stroke="#606060" stroke-width="1.0"/>
   <path id="arrow"
     d="M 11.500037,31.436501 C 11.940474,20.09759 22.043105,11.32322 32.158766,21.979434 L 37.068811,17.246167 C 37.068811,17.246167 37.088388,32 37.088388,32 L 22.160133,31.978069 C 22.160133,31.978069 26.997745,27.140456 26.997745,27.140456 C 18.528582,18.264221 13.291696,25.230495 11.500037,31.436501 z"
     style="fill:#404040;"/>
  </a>
 </g>
</svg>

<style type='text/css'>
<![CDATA[
[data-mouse-over-selected='false'] { opacity: 0.7; }
[data-mouse-over-selected='true']  { opacity: 1.0; }
]]>
</style>
<script type="application/ecmascript"><![CDATA[
document.addEventListener('DOMContentLoaded', (event) => {
  highlightEdges();
  highlightAdjacentNodes();
});
]]></script>
</svg>
