<?xml version="1.0" encoding="UTF-8"?>
<svg version="1.1" xmlns="http://www.w3.org/2000/svg" width="100" height="100">
<path d="M0 0 C1.12489334 -0.00960754 2.24978668 -0.01921509 3.4087677 -0.02911377 C5.23996407 -0.03548859 5.23996407 -0.03548859 7.1081543 -0.04199219 C8.98388374 -0.0505423 8.98388374 -0.0505423 10.89750671 -0.05926514 C13.54808188 -0.06872628 16.19854352 -0.07561722 18.84912109 -0.07910156 C22.23866025 -0.0845787 25.62779615 -0.10858956 29.01720905 -0.13707352 C32.25582684 -0.16022924 35.49446532 -0.1621519 38.7331543 -0.16699219 C39.94787918 -0.17933899 41.16260406 -0.19168579 42.41413879 -0.20440674 C43.54848862 -0.20140564 44.68283844 -0.19840454 45.8515625 -0.1953125 C46.84702591 -0.19895813 47.84248932 -0.20260376 48.86811829 -0.20635986 C52.39603325 0.26478783 55.08658539 1.62784516 57.61987305 4.16113281 C57.73456244 5.94455588 57.77951 7.7325086 57.796875 9.51953125 C57.81612785 11.23701569 57.81612785 11.23701569 57.83576965 12.98919678 C57.84315659 14.23702942 57.85054352 15.48486206 57.8581543 16.77050781 C57.86622604 18.0446051 57.87429779 19.31870239 57.88261414 20.63140869 C57.89647694 23.33503882 57.90748639 26.03854609 57.91503906 28.7421875 C57.92608492 32.20025175 57.9604561 35.65766915 58.00021076 39.11550522 C58.03269985 42.41710866 58.03715888 45.71876887 58.0456543 49.02050781 C58.06316238 50.26024353 58.08067047 51.49997925 58.09870911 52.77728271 C58.09578354 53.93488098 58.09285797 55.09247925 58.08984375 56.28515625 C58.09570999 57.30140076 58.10157623 58.31764526 58.10762024 59.36468506 C57.48913139 62.91072648 56.07989449 64.58416367 53.61987305 67.16113281 C51.07623853 68.43295007 49.27102331 68.30195958 46.42333984 68.32226562 C45.33848801 68.33187317 44.25363617 68.34148071 43.13591003 68.35137939 C41.95886002 68.35562927 40.78181 68.35987915 39.5690918 68.36425781 C37.75995049 68.37280792 37.75995049 68.37280792 35.91426086 68.38153076 C33.35788859 68.39099127 30.80150407 68.3975189 28.24511719 68.40136719 C24.33401177 68.41106675 20.42343302 68.44207872 16.51245117 68.47363281 C14.03133451 68.48016325 11.55021408 68.48541356 9.0690918 68.48925781 C7.89811447 68.50160461 6.72713715 68.51395142 5.52067566 68.52667236 C4.42636734 68.52367126 3.33205902 68.52067017 2.20458984 68.51757812 C1.24465622 68.52122375 0.2847226 68.52486938 -0.70429993 68.52862549 C-3.92354896 68.08650033 -5.76910792 67.07150731 -8.38012695 65.16113281 C-10.6013867 61.8292432 -10.63598047 60.75371723 -10.65478516 56.86694336 C-10.66431717 55.78539474 -10.67384918 54.70384613 -10.68367004 53.58952332 C-10.68275864 52.42077164 -10.68184723 51.25201996 -10.6809082 50.04785156 C-10.68519333 48.84554398 -10.68947845 47.64323639 -10.69389343 46.40449524 C-10.69964149 43.85829295 -10.70013352 41.31207423 -10.69580078 38.76586914 C-10.69264795 34.87455068 -10.71607057 30.98399746 -10.74145508 27.09277344 C-10.74372875 24.61946711 -10.74443125 22.14615873 -10.7434082 19.67285156 C-10.75261795 18.51017258 -10.7618277 17.34749359 -10.77131653 16.14958191 C-10.71282509 5.90450221 -10.71282509 5.90450221 -7.38012695 1.16113281 C-4.79203408 -0.13291362 -2.89819207 0.01992682 0 0 Z M-3.59912109 5.77416992 C-5.87393326 8.82294833 -5.88263834 10.57366974 -5.8762207 14.35253906 C-5.87686523 15.54427734 -5.87750977 16.73601563 -5.87817383 17.96386719 C-5.85819336 19.20458984 -5.83821289 20.4453125 -5.81762695 21.72363281 C-5.8247168 22.96822266 -5.83180664 24.2128125 -5.83911133 25.49511719 C-6.19315684 31.67129368 -6.19315684 31.67129368 -3.85302734 37.03979492 C-3.12394165 37.59485718 -3.12394165 37.59485718 -2.38012695 38.16113281 C-3.37012695 38.16113281 -4.36012695 38.16113281 -5.38012695 38.16113281 C-5.60622032 40.28477762 -5.60622032 40.28477762 -3.88012695 41.78613281 C-3.38512695 42.23988281 -2.89012695 42.69363281 -2.38012695 43.16113281 C-3.37012695 43.16113281 -4.36012695 43.16113281 -5.38012695 43.16113281 C-5.38012695 44.15113281 -5.38012695 45.14113281 -5.38012695 46.16113281 C-4.06012695 46.16113281 -2.74012695 46.16113281 -1.38012695 46.16113281 C-1.05012695 46.82113281 -0.72012695 47.48113281 -0.38012695 48.16113281 C-2.85512695 48.65613281 -2.85512695 48.65613281 -5.38012695 49.16113281 C-5.38012695 50.15113281 -5.38012695 51.14113281 -5.38012695 52.16113281 C-2.41012695 51.66613281 -2.41012695 51.66613281 0.61987305 51.16113281 C0.61987305 52.15113281 0.61987305 53.14113281 0.61987305 54.16113281 C-2.35012695 54.65613281 -2.35012695 54.65613281 -5.38012695 55.16113281 C-5.05012695 56.48113281 -4.72012695 57.80113281 -4.38012695 59.16113281 C-2.73012695 58.50113281 -1.08012695 57.84113281 0.61987305 57.16113281 C0.61987305 58.15113281 0.61987305 59.14113281 0.61987305 60.16113281 C-0.70012695 60.82113281 -2.02012695 61.48113281 -3.38012695 62.16113281 C0.89697004 62.16113281 2.17917681 61.4549303 5.61987305 59.16113281 C5.28987305 60.48113281 4.95987305 61.80113281 4.61987305 63.16113281 C5.21799805 62.85175781 5.81612305 62.54238281 6.43237305 62.22363281 C8.61987305 61.16113281 8.61987305 61.16113281 11.61987305 60.16113281 C11.61987305 61.15113281 11.61987305 62.14113281 11.61987305 63.16113281 C14.00551382 62.58528849 16.28670089 61.93885687 18.61987305 61.16113281 C18.61987305 61.82113281 18.61987305 62.48113281 18.61987305 63.16113281 C26.86987305 63.16113281 35.11987305 63.16113281 43.61987305 63.16113281 C43.28987305 61.51113281 42.95987305 59.86113281 42.61987305 58.16113281 C43.60987305 58.16113281 44.59987305 58.16113281 45.61987305 58.16113281 C46.27987305 59.81113281 46.93987305 61.46113281 47.61987305 63.16113281 C48.27987305 62.83113281 48.93987305 62.50113281 49.61987305 62.16113281 C48.95987305 60.84113281 48.29987305 59.52113281 47.61987305 58.16113281 C49.26987305 58.82113281 50.91987305 59.48113281 52.61987305 60.16113281 C52.64459583 54.11051735 52.6627439 48.05993132 52.67480469 42.00927734 C52.67983278 39.9510039 52.68665611 37.89273403 52.6953125 35.83447266 C52.7074447 32.87564208 52.71311662 29.91685873 52.7175293 26.95800781 C52.72269058 26.03808044 52.72785187 25.11815308 52.73316956 24.17034912 C52.73324509 23.30975891 52.73332062 22.4491687 52.73339844 21.5625 C52.73561905 20.80749207 52.73783966 20.05248413 52.74012756 19.27459717 C52.61763279 17.12176052 52.21115723 15.23032544 51.61987305 13.16113281 C50.95987305 13.16113281 50.29987305 13.16113281 49.61987305 13.16113281 C50.39331055 11.98550781 50.39331055 11.98550781 51.18237305 10.78613281 C51.65674805 9.91988281 52.13112305 9.05363281 52.61987305 8.16113281 C52.12487305 7.17113281 52.12487305 7.17113281 51.61987305 6.16113281 C51.18674805 6.63550781 50.75362305 7.10988281 50.30737305 7.59863281 C48.61987305 9.16113281 48.61987305 9.16113281 45.61987305 10.16113281 C45.94987305 8.84113281 46.27987305 7.52113281 46.61987305 6.16113281 C44.63987305 6.82113281 42.65987305 7.48113281 40.61987305 8.16113281 C40.12487305 7.17113281 40.12487305 7.17113281 39.61987305 6.16113281 C37.63987305 7.15113281 37.63987305 7.15113281 35.61987305 8.16113281 C35.61987305 7.50113281 35.61987305 6.84113281 35.61987305 6.16113281 C30.99350276 5.87474572 26.36703779 5.58995836 21.74047852 5.30664062 C20.16720939 5.21007333 18.59396683 5.11307211 17.02075195 5.015625 C14.75698617 4.87548031 12.49312881 4.73690615 10.22924805 4.59863281 C9.52805847 4.55488525 8.8268689 4.5111377 8.10443115 4.46606445 C1.91506859 3.70177678 1.91506859 3.70177678 -3.59912109 5.77416992 Z " fill="#000000" transform="translate(26.380126953125,13.8388671875)"/>
<path d="M0 0 C4.29 0 8.58 0 13 0 C13 11.55 13 23.1 13 35 C8.71 35 4.42 35 0 35 C-1.86666667 9.33333333 -1.86666667 9.33333333 0 0 Z M3 3 C0.05316779 11.84049662 2.24420742 22.87650388 3 32 C5.31 32 7.62 32 10 32 C10 22.43 10 12.86 10 3 C7.69 3 5.38 3 3 3 Z " fill="#000000" transform="translate(54,31)"/>
<path d="M0 0 C3.96 0 7.92 0 12 0 C13.95238071 1.95238071 13.13261313 4.8950384 13.13867188 7.49121094 C13.13416016 8.38098633 13.12964844 9.27076172 13.125 10.1875 C13.12306641 11.08629883 13.12113281 11.98509766 13.11914062 12.91113281 C13.07164103 20.31843148 12.64194507 27.61763166 12 35 C7.71 35 3.42 35 -1 35 C-0.67 23.45 -0.34 11.9 0 0 Z M3 3 C2.67 12.57 2.34 22.14 2 32 C4.31 32 6.62 32 9 32 C10.04518445 22.31337984 10.10371911 12.72654773 10 3 C7.69 3 5.38 3 3 3 Z " fill="#000000" transform="translate(34,31)"/>
<path d="M0 0 C0.99 0 1.98 0 3 0 C3 0.99 3 1.98 3 3 C2.01 3 1.02 3 0 3 C0 2.01 0 1.02 0 0 Z " fill="#000000" transform="translate(71,34)"/>
<path d="M0 0 C0.66 0.33 1.32 0.66 2 1 C2 1.66 2 2.32 2 3 C1.01 3 0.02 3 -1 3 C-0.67 2.01 -0.34 1.02 0 0 Z " fill="#000000" transform="translate(25,28)"/>
<path d="M0 0 C0.66 0 1.32 0 2 0 C2 0.99 2 1.98 2 3 C1.34 3 0.68 3 0 3 C0 2.01 0 1.02 0 0 Z " fill="#000000" transform="translate(29,22)"/>
</svg>
