<?xml version="1.0" encoding="UTF-8" standalone="no"?>
<!DOCTYPE svg PUBLIC "-//W3C//DTD SVG 1.1//EN"
 "http://www.w3.org/Graphics/SVG/1.1/DTD/svg11.dtd">
<!-- Generated by graphviz version 2.43.0 (0)
 -->
<!-- Title: AestraContent::refreshPluginList Pages: 1 -->
<svg width="377pt" height="124pt"
 viewBox="0.00 0.00 377.00 123.50" xmlns="http://www.w3.org/2000/svg" xmlns:xlink="http://www.w3.org/1999/xlink">
<g id="graph0" class="graph" transform="scale(1 1) rotate(0) translate(4 119.5)">
<title>AestraContent::refreshPluginList</title>
<!-- Node1 -->
<g id="Node000001" class="node">
<title>Node1</title>
<g id="a_Node000001"><a xlink:title="Refresh the visible plugin list in the browser.">
<polygon fill="#999999" stroke="#666666" points="369,-72.5 195,-72.5 195,-53.5 369,-53.5 369,-72.5"/>
<text text-anchor="middle" x="282" y="-60.5" font-family="Helvetica,sans-Serif" font-size="10.00">AestraContent::refreshPluginList</text>
</a>
</g>
</g>
<!-- Node2 -->
<g id="Node000002" class="node">
<title>Node2</title>
<g id="a_Node000002"><a xlink:href="../../db/d60/classAestraContent.html#a9cd2ff0a44640c8c7c68543fc33f56d1" target="_top" xlink:title="Advance workspace state and child&#45;panel updates.">
<polygon fill="white" stroke="#666666" points="149.5,-115.5 9.5,-115.5 9.5,-96.5 149.5,-96.5 149.5,-115.5"/>
<text text-anchor="middle" x="79.5" y="-103.5" font-family="Helvetica,sans-Serif" font-size="10.00">AestraContent::onUpdate</text>
</a>
</g>
</g>
<!-- Node1&#45;&gt;Node2 -->
<g id="edge1_Node000001_Node000002" class="edge">
<title>Node1&#45;&gt;Node2</title>
<g id="a_edge1_Node000001_Node000002"><a xlink:title=" ">
<path fill="none" stroke="#63b8ff" d="M226.45,-74.7C194.56,-81.54 154.83,-90.06 124.87,-96.48"/>
<polygon fill="#63b8ff" stroke="#63b8ff" points="227.46,-78.06 236.5,-72.54 225.99,-71.22 227.46,-78.06"/>
</a>
</g>
</g>
<!-- Node3 -->
<g id="Node000003" class="node">
<title>Node3</title>
<g id="a_Node000003"><a xlink:href="../../db/d60/classAestraContent.html#af214284a167c0d4485e8c7849733eee2" target="_top" xlink:title="Create the file/plugin/preview/pattern browser panels.">
<polygon fill="white" stroke="#666666" points="159,-78 0,-78 0,-48 159,-48 159,-78"/>
<text text-anchor="start" x="8" y="-66" font-family="Helvetica,sans-Serif" font-size="10.00">AestraContent::setupBrowser</text>
<text text-anchor="middle" x="79.5" y="-55" font-family="Helvetica,sans-Serif" font-size="10.00">Panels</text>
</a>
</g>
</g>
<!-- Node1&#45;&gt;Node3 -->
<g id="edge2_Node000001_Node000003" class="edge">
<title>Node1&#45;&gt;Node3</title>
<g id="a_edge2_Node000001_Node000003"><a xlink:title=" ">
<path fill="none" stroke="#63b8ff" d="M184.73,-63C176.11,-63 167.46,-63 159.02,-63"/>
<polygon fill="#63b8ff" stroke="#63b8ff" points="184.81,-66.5 194.81,-63 184.81,-59.5 184.81,-66.5"/>
</a>
</g>
</g>
<!-- Node4 -->
<g id="Node000004" class="node">
<title>Node4</title>
<g id="a_Node000004"><a xlink:href="../../db/d60/classAestraContent.html#a59842dc639e11b43359a064651907ae6" target="_top" xlink:title="Create the mixer overlay and the routing&#45;map full panel.">
<polygon fill="white" stroke="#666666" points="152.5,-30 6.5,-30 6.5,0 152.5,0 152.5,-30"/>
<text text-anchor="start" x="14.5" y="-18" font-family="Helvetica,sans-Serif" font-size="10.00">AestraContent::setupMixer</text>
<text text-anchor="middle" x="79.5" y="-7" font-family="Helvetica,sans-Serif" font-size="10.00">Panels</text>
</a>
</g>
</g>
<!-- Node1&#45;&gt;Node4 -->
<g id="edge3_Node000001_Node000004" class="edge">
<title>Node1&#45;&gt;Node4</title>
<g id="a_edge3_Node000001_Node000004"><a xlink:title=" ">
<path fill="none" stroke="#63b8ff" d="M231.07,-51.05C204.55,-44.7 171.68,-36.83 143.42,-30.06"/>
<polygon fill="#63b8ff" stroke="#63b8ff" points="230.37,-54.48 240.91,-53.4 232,-47.67 230.37,-54.48"/>
</a>
</g>
</g>
</g>
</svg>
