<?xml version="1.0" encoding="UTF-8" standalone="no"?>
<!DOCTYPE svg PUBLIC "-//W3C//DTD SVG 1.1//EN"
 "http://www.w3.org/Graphics/SVG/1.1/DTD/svg11.dtd">
<!-- Generated by graphviz version 2.43.0 (0)
 -->
<!-- Title: AestraContent::updatePanelDrag Pages: 1 -->
<!--zoomable 107 -->

<svg id="main" version="1.1" xmlns="http://www.w3.org/2000/svg" xmlns:xlink="http://www.w3.org/1999/xlink" xml:space="preserve" onload="init(evt)">
<style type="text/css"><![CDATA[
.node, .edge {opacity: 0.7;}
.node.selected, .edge.selected {opacity: 1;}
.edge:hover path { stroke: red; }
.edge:hover polygon { stroke: red; fill: red; }
]]></style>

<defs>
  <circle id="rim" cx="0" cy="0" r="7"/>
  <circle id="rim2" cx="0" cy="0" r="3.5"/>
  <g id="zoomPlus">
    <use xlink:href="#rim" fill="#404040"><set attributeName="fill" to="#808080" begin="zoomplus.mouseover" end="zoomplus.mouseout"/></use>
    <path d="M-4,0h8M0,-4v8" fill="none" stroke="white" stroke-width="1.5" pointer-events="none"/>
  </g>
  <g id="zoomMin">
    <use xlink:href="#rim" fill="#404040"><set attributeName="fill" to="#808080" begin="zoomminus.mouseover" end="zoomminus.mouseout"/></use>
    <path d="M-4,0h8" fill="none" stroke="white" stroke-width="1.5" pointer-events="none"/>
  </g>
  <g id="arrowUp" transform="translate(30 24)">
    <use xlink:href="#rim"/>
    <path pointer-events="none" fill="none" stroke="white" stroke-width="1.5" d="M0,-3.0v7 M-2.5,-0.5L0,-3.0L2.5,-0.5"/>
  </g>
  <g id="arrowRight" transform="rotate(90) translate(36 -43)">
    <use xlink:href="#rim"/>
    <path pointer-events="none" fill="none" stroke="white" stroke-width="1.5" d="M0,-3.0v7 M-2.5,-0.5L0,-3.0L2.5,-0.5"/>
  </g>
  <g id="arrowDown" transform="rotate(180) translate(-30 -48)">
    <use xlink:href="#rim"/>
    <path pointer-events="none" fill="none" stroke="white" stroke-width="1.5" d="M0,-3.0v7 M-2.5,-0.5L0,-3.0L2.5,-0.5"/>
  </g>
  <g id="arrowLeft" transform="rotate(270) translate(-36 17)">
    <use xlink:href="#rim"/>
    <path pointer-events="none" fill="none" stroke="white" stroke-width="1.5" d="M0,-3.0v7 M-2.5,-0.5L0,-3.0L2.5,-0.5"/>
  </g>
  <g id="resetDef">
    <use xlink:href="#rim2" fill="#404040"><set attributeName="fill" to="#808080" begin="reset.mouseover" end="reset.mouseout"/></use>
  </g>
</defs>
<script type="application/ecmascript">
var viewWidth = 609;
var viewHeight = 107;
var sectionId = 'dynsection-84';
</script>
<script type="application/ecmascript" xlink:href="../../svg.min.js"/>
<svg id="graph" class="graph">
<g id="viewport">
<title>AestraContent::updatePanelDrag</title>
<!-- Node1 -->
<g id="Node000001" class="node">
<title>Node1</title>
<g id="a_Node000001"><a xlink:title="Update the active overlay&#45;panel drag.">
<polygon fill="#999999" stroke="#666666" points="176,-69.5 0,-69.5 0,-50.5 176,-50.5 176,-69.5"/>
<text text-anchor="middle" x="88" y="-57.5" font-family="Helvetica,sans-Serif" font-size="10.00">AestraContent::updatePanelDrag</text>
</a>
</g>
</g>
<!-- Node2 -->
<g id="Node000002" class="node">
<title>Node2</title>
<g id="a_Node000002"><a xlink:href="../../db/d60/classAestraContent.html#ac3a61a9e4765aadb4e43f89145418a38" target="_top" xlink:title="Clamp an overlay rectangle to the current allowed bounds.">
<polygon fill="white" stroke="#666666" points="371,-99 227,-99 227,-69 371,-69 371,-99"/>
<text text-anchor="start" x="235" y="-87" font-family="Helvetica,sans-Serif" font-size="10.00">AestraContent::clampRect</text>
<text text-anchor="middle" x="299" y="-76" font-family="Helvetica,sans-Serif" font-size="10.00">ToAllowed</text>
</a>
</g>
</g>
<!-- Node1&#45;&gt;Node2 -->
<g id="edge1_Node000001_Node000002" class="edge">
<title>Node1&#45;&gt;Node2</title>
<g id="a_edge1_Node000001_Node000002"><a xlink:title=" ">
<path fill="none" stroke="#63b8ff" d="M171.9,-69.52C186.63,-71.21 201.95,-72.97 216.63,-74.66"/>
<polygon fill="#63b8ff" stroke="#63b8ff" points="216.34,-78.15 226.67,-75.81 217.14,-71.19 216.34,-78.15"/>
</a>
</g>
</g>
<!-- Node3 -->
<g id="Node000003" class="node">
<title>Node3</title>
<g id="a_Node000003"><a xlink:href="../../db/d60/classAestraContent.html#ab127c5e597ccf0ba3ec1f5b63e113b15" target="_top" xlink:title="Compute the rectangle panels are allowed to occupy.">
<polygon fill="white" stroke="#666666" points="386,-51 212,-51 212,-21 386,-21 386,-51"/>
<text text-anchor="start" x="220" y="-39" font-family="Helvetica,sans-Serif" font-size="10.00">AestraContent::computeAllowed</text>
<text text-anchor="middle" x="299" y="-28" font-family="Helvetica,sans-Serif" font-size="10.00">RectForPanels</text>
</a>
</g>
</g>
<!-- Node1&#45;&gt;Node3 -->
<g id="edge2_Node000001_Node000003" class="edge">
<title>Node1&#45;&gt;Node3</title>
<g id="a_edge2_Node000001_Node000003"><a xlink:title=" ">
<path fill="none" stroke="#63b8ff" d="M171.9,-50.48C181.73,-49.35 191.83,-48.19 201.82,-47.04"/>
<polygon fill="#63b8ff" stroke="#63b8ff" points="202.23,-50.52 211.77,-45.9 201.44,-43.57 202.23,-50.52"/>
</a>
</g>
</g>
<!-- Node4 -->
<g id="Node000004" class="node">
<title>Node4</title>
<g id="a_Node000004"><a xlink:href="../../db/d60/classAestraContent.html#a747fc3bfb5c3b565623f999c228c9e75" target="_top" xlink:title="Compute the safe workspace rectangle after chrome and sidebars.">
<polygon fill="white" stroke="#666666" points="601,-67.5 422,-67.5 422,-48.5 601,-48.5 601,-67.5"/>
<text text-anchor="middle" x="511.5" y="-55.5" font-family="Helvetica,sans-Serif" font-size="10.00">AestraContent::computeSafeRect</text>
</a>
</g>
</g>
<!-- Node3&#45;&gt;Node4 -->
<g id="edge3_Node000003_Node000004" class="edge">
<title>Node3&#45;&gt;Node4</title>
<g id="a_edge3_Node000003_Node000004"><a xlink:title=" ">
<path fill="none" stroke="#63b8ff" d="M386.23,-45.01C394.63,-45.89 403.2,-46.79 411.72,-47.68"/>
<polygon fill="#63b8ff" stroke="#63b8ff" points="411.37,-51.16 421.68,-48.72 412.1,-44.2 411.37,-51.16"/>
</a>
</g>
</g>
<!-- Node5 -->
<g id="Node000005" class="node">
<title>Node5</title>
<g id="a_Node000005"><a xlink:href="../../db/d60/classAestraContent.html#a75c1ce436d0185fc1d0acf11d301ee83" target="_top" xlink:title="Get the x coordinate of the visible browser edge.">
<polygon fill="white" stroke="#666666" points="582,-30 441,-30 441,0 582,0 582,-30"/>
<text text-anchor="start" x="449" y="-18" font-family="Helvetica,sans-Serif" font-size="10.00">AestraContent::getVisible</text>
<text text-anchor="middle" x="511.5" y="-7" font-family="Helvetica,sans-Serif" font-size="10.00">BrowserEdge</text>
</a>
</g>
</g>
<!-- Node3&#45;&gt;Node5 -->
<g id="edge4_Node000003_Node000005" class="edge">
<title>Node3&#45;&gt;Node5</title>
<g id="a_edge4_Node000003_Node000005"><a xlink:title=" ">
<path fill="none" stroke="#63b8ff" d="M386.23,-27.4C400.99,-25.93 416.26,-24.4 430.84,-22.95"/>
<polygon fill="#63b8ff" stroke="#63b8ff" points="431.21,-26.43 440.81,-21.95 430.51,-19.46 431.21,-26.43"/>
</a>
</g>
</g>
</g>
</svg>

<g id="navigator" transform="translate(0 0)" fill="#404254">
  <rect fill="#f2f5e9" fill-opacity="0.5" stroke="#606060" stroke-width=".5" x="0" y="0" width="60" height="60"/>
  <use id="zoomplus" xlink:href="#zoomPlus" x="17" y="9" onmousedown="handleZoom(evt,'in')"/>
  <use id="zoomminus" xlink:href="#zoomMin" x="42" y="9" onmousedown="handleZoom(evt,'out')"/>
  <use id="reset" xlink:href="#resetDef" x="30" y="36" onmousedown="handleReset()"/>
   <use id="arrowup" xlink:href="#arrowUp" x="0" y="0" onmousedown="handlePan(0,-1)"/>
  <use id="arrowright" xlink:href="#arrowRight" x="0" y="0" onmousedown="handlePan(1,0)"/>
  <use id="arrowdown" xlink:href="#arrowDown" x="0" y="0" onmousedown="handlePan(0,1)"/>
  <use id="arrowleft" xlink:href="#arrowLeft" x="0" y="0" onmousedown="handlePan(-1,0)"/>
</g>
<svg viewBox="0 0 15 15" width="100%" height="30px" preserveAspectRatio="xMaxYMin meet">
 <g id="arrow_out" transform="scale(0.3 0.3)">
  <a xlink:href="classAestraContent_abf75859f00b70e490c26fdad50391fc0_cgraph_org.svg" target="_base">
   <rect id="button" ry="5" rx="5" y="6" x="6" height="38" width="38"
        fill="#f2f5e9" fill-opacity="0.5" stroke="#606060" stroke-width="1.0"/>
   <path id="arrow"
     d="M 11.500037,31.436501 C 11.940474,20.09759 22.043105,11.32322 32.158766,21.979434 L 37.068811,17.246167 C 37.068811,17.246167 37.088388,32 37.088388,32 L 22.160133,31.978069 C 22.160133,31.978069 26.997745,27.140456 26.997745,27.140456 C 18.528582,18.264221 13.291696,25.230495 11.500037,31.436501 z"
     style="fill:#404040;"/>
  </a>
 </g>
</svg>

<style type='text/css'>
<![CDATA[
[data-mouse-over-selected='false'] { opacity: 0.7; }
[data-mouse-over-selected='true']  { opacity: 1.0; }
]]>
</style>
<script type="application/ecmascript"><![CDATA[
document.addEventListener('DOMContentLoaded', (event) => {
  highlightEdges();
  highlightAdjacentNodes();
});
]]></script>
</svg>
