<?xml version="1.0" encoding="UTF-8" standalone="no"?>
<!DOCTYPE svg PUBLIC "-//W3C//DTD SVG 1.1//EN"
 "http://www.w3.org/Graphics/SVG/1.1/DTD/svg11.dtd">
<!-- Generated by graphviz version 2.43.0 (0)
 -->
<!-- Title: AestraUI::UIMixerStrip Pages: 1 -->
<!--zoomable 428 -->

<svg id="main" version="1.1" xmlns="http://www.w3.org/2000/svg" xmlns:xlink="http://www.w3.org/1999/xlink" xml:space="preserve" onload="init(evt)">
<style type="text/css"><![CDATA[
.node, .edge {opacity: 0.7;}
.node.selected, .edge.selected {opacity: 1;}
.edge:hover path { stroke: red; }
.edge:hover polygon { stroke: red; fill: red; }
]]></style>

<defs>
  <circle id="rim" cx="0" cy="0" r="7"/>
  <circle id="rim2" cx="0" cy="0" r="3.5"/>
  <g id="zoomPlus">
    <use xlink:href="#rim" fill="#404040"><set attributeName="fill" to="#808080" begin="zoomplus.mouseover" end="zoomplus.mouseout"/></use>
    <path d="M-4,0h8M0,-4v8" fill="none" stroke="white" stroke-width="1.5" pointer-events="none"/>
  </g>
  <g id="zoomMin">
    <use xlink:href="#rim" fill="#404040"><set attributeName="fill" to="#808080" begin="zoomminus.mouseover" end="zoomminus.mouseout"/></use>
    <path d="M-4,0h8" fill="none" stroke="white" stroke-width="1.5" pointer-events="none"/>
  </g>
  <g id="arrowUp" transform="translate(30 24)">
    <use xlink:href="#rim"/>
    <path pointer-events="none" fill="none" stroke="white" stroke-width="1.5" d="M0,-3.0v7 M-2.5,-0.5L0,-3.0L2.5,-0.5"/>
  </g>
  <g id="arrowRight" transform="rotate(90) translate(36 -43)">
    <use xlink:href="#rim"/>
    <path pointer-events="none" fill="none" stroke="white" stroke-width="1.5" d="M0,-3.0v7 M-2.5,-0.5L0,-3.0L2.5,-0.5"/>
  </g>
  <g id="arrowDown" transform="rotate(180) translate(-30 -48)">
    <use xlink:href="#rim"/>
    <path pointer-events="none" fill="none" stroke="white" stroke-width="1.5" d="M0,-3.0v7 M-2.5,-0.5L0,-3.0L2.5,-0.5"/>
  </g>
  <g id="arrowLeft" transform="rotate(270) translate(-36 17)">
    <use xlink:href="#rim"/>
    <path pointer-events="none" fill="none" stroke="white" stroke-width="1.5" d="M0,-3.0v7 M-2.5,-0.5L0,-3.0L2.5,-0.5"/>
  </g>
  <g id="resetDef">
    <use xlink:href="#rim2" fill="#404040"><set attributeName="fill" to="#808080" begin="reset.mouseover" end="reset.mouseout"/></use>
  </g>
</defs>
<script type="application/ecmascript">
var viewWidth = 676;
var viewHeight = 428;
var sectionId = 'dynsection-1';
</script>
<script type="application/ecmascript" xlink:href="../../svg.min.js"/>
<svg id="graph" class="graph">
<g id="viewport">
<title>AestraUI::UIMixerStrip</title>
<!-- Node1 -->
<g id="Node000001" class="node">
<title>Node1</title>
<g id="a_Node000001"><a xlink:title="Minimal mixer channel strip: header + meter + fader.">
<polygon fill="#999999" stroke="#666666" points="668,-192.5 543,-192.5 543,-173.5 668,-173.5 668,-192.5"/>
<text text-anchor="middle" x="605.5" y="-180.5" font-family="Helvetica,sans-Serif" font-size="10.00">AestraUI::UIMixerStrip</text>
</a>
</g>
</g>
<!-- Node2 -->
<g id="Node000002" class="node">
<title>Node2</title>
<g id="a_Node000002"><a xlink:href="../../db/d1a/classAestraUI_1_1NUIComponent.html" target="_top" xlink:title="Base class for all UI components in the Aestra UI framework.">
<polygon fill="white" stroke="#666666" points="416,-355.5 277,-355.5 277,-336.5 416,-336.5 416,-355.5"/>
<text text-anchor="middle" x="346.5" y="-343.5" font-family="Helvetica,sans-Serif" font-size="10.00">AestraUI::NUIComponent</text>
</a>
</g>
</g>
<!-- Node2&#45;&gt;Node1 -->
<g id="edge1_Node000001_Node000002" class="edge">
<title>Node2&#45;&gt;Node1</title>
<g id="a_edge1_Node000001_Node000002"><a xlink:title=" ">
<path fill="none" stroke="#63b8ff" d="M426.39,-337.4C459.17,-330.85 496.2,-319.32 525,-299 565.3,-270.57 591.5,-214.78 600.76,-192.51"/>
<polygon fill="#63b8ff" stroke="#63b8ff" points="425.55,-334 416.37,-339.28 426.84,-340.88 425.55,-334"/>
</a>
</g>
</g>
<!-- Node3 -->
<g id="Node000003" class="node">
<title>Node3</title>
<g id="a_Node000003"><a xlink:title=" ">
<polygon fill="white" stroke="#bfbfbf" points="165,-420 0,-420 0,-390 165,-390 165,-420"/>
<text text-anchor="start" x="8" y="-408" font-family="Helvetica,sans-Serif" font-size="10.00">std::enable_shared</text>
<text text-anchor="middle" x="82.5" y="-397" font-family="Helvetica,sans-Serif" font-size="10.00">_from_this&lt; NUIComponent &gt;</text>
</a>
</g>
</g>
<!-- Node3&#45;&gt;Node2 -->
<g id="edge2_Node000002_Node000003" class="edge">
<title>Node3&#45;&gt;Node2</title>
<g id="a_edge2_Node000002_Node000003"><a xlink:title=" ">
<path fill="none" stroke="#63b8ff" d="M175.42,-404.58C202.73,-402.62 232.43,-398.63 259,-391 286.33,-383.15 315.04,-366.22 331.55,-355.51"/>
<polygon fill="#63b8ff" stroke="#63b8ff" points="174.84,-401.11 165.09,-405.24 175.29,-408.1 174.84,-401.11"/>
</a>
</g>
</g>
<!-- Node4 -->
<g id="Node000004" class="node">
<title>Node4</title>
<g id="a_Node000004"><a xlink:title=" ">
<polygon fill="white" stroke="#bfbfbf" points="142.5,-361 22.5,-361 22.5,-331 142.5,-331 142.5,-361"/>
<text text-anchor="start" x="30.5" y="-349" font-family="Helvetica,sans-Serif" font-size="10.00">function&lt; void(const</text>
<text text-anchor="middle" x="82.5" y="-338" font-family="Helvetica,sans-Serif" font-size="10.00"> NUIMouseEvent &amp;)&gt;</text>
</a>
</g>
</g>
<!-- Node4&#45;&gt;Node2 -->
<g id="edge3_Node000002_Node000004" class="edge">
<title>Node4&#45;&gt;Node2</title>
<g id="a_edge3_Node000002_Node000004"><a xlink:title=" ">
<path fill="none" stroke="#9a32cd" stroke-dasharray="5,2" d="M152.68,-346C191.04,-346 238.58,-346 276.86,-346"/>
<polygon fill="#9a32cd" stroke="#9a32cd" points="152.62,-342.5 142.62,-346 152.62,-349.5 152.62,-342.5"/>
</a>
</g>
<text text-anchor="middle" x="221" y="-382" font-family="Helvetica,sans-Serif" font-size="10.00" fill="grey"> onMouseDown</text>
<text text-anchor="middle" x="221" y="-371" font-family="Helvetica,sans-Serif" font-size="10.00" fill="grey">onMouseMove</text>
<text text-anchor="middle" x="221" y="-360" font-family="Helvetica,sans-Serif" font-size="10.00" fill="grey">onMouseUp</text>
<text text-anchor="middle" x="221" y="-349" font-family="Helvetica,sans-Serif" font-size="10.00" fill="grey">onMouseWheel</text>
</g>
<!-- Node5 -->
<g id="Node000005" class="node">
<title>Node5</title>
<g id="a_Node000005"><a xlink:title=" ">
<polygon fill="white" stroke="#bfbfbf" points="142,-313 23,-313 23,-283 142,-283 142,-313"/>
<text text-anchor="start" x="31" y="-301" font-family="Helvetica,sans-Serif" font-size="10.00">function&lt; void(const</text>
<text text-anchor="middle" x="82.5" y="-290" font-family="Helvetica,sans-Serif" font-size="10.00"> NUIKeyEvent &amp;)&gt;</text>
</a>
</g>
</g>
<!-- Node5&#45;&gt;Node2 -->
<g id="edge4_Node000002_Node000005" class="edge">
<title>Node5&#45;&gt;Node2</title>
<g id="a_edge4_Node000002_Node000005"><a xlink:title=" ">
<path fill="none" stroke="#9a32cd" stroke-dasharray="5,2" d="M152.61,-302.71C185.23,-305.93 224.48,-311.27 259,-320 267.32,-322.11 268.85,-324.29 277,-327 287.07,-330.35 298.11,-333.59 308.32,-336.42"/>
<polygon fill="#9a32cd" stroke="#9a32cd" points="152.55,-299.19 142.27,-301.73 151.9,-306.16 152.55,-299.19"/>
</a>
</g>
<text text-anchor="middle" x="221" y="-334" font-family="Helvetica,sans-Serif" font-size="10.00" fill="grey"> onKeyDown</text>
<text text-anchor="middle" x="221" y="-323" font-family="Helvetica,sans-Serif" font-size="10.00" fill="grey">onKeyUp</text>
</g>
<!-- Node6 -->
<g id="Node000006" class="node">
<title>Node6</title>
<g id="a_Node000006"><a xlink:title=" ">
<polygon fill="white" stroke="#bfbfbf" points="408,-318 285,-318 285,-288 408,-288 408,-318"/>
<text text-anchor="start" x="293" y="-306" font-family="Helvetica,sans-Serif" font-size="10.00">function&lt; void(uint32</text>
<text text-anchor="middle" x="346.5" y="-295" font-family="Helvetica,sans-Serif" font-size="10.00">_t channelId)&gt;</text>
</a>
</g>
</g>
<!-- Node6&#45;&gt;Node1 -->
<g id="edge5_Node000001_Node000006" class="edge">
<title>Node6&#45;&gt;Node1</title>
<g id="a_edge5_Node000001_Node000006"><a xlink:title=" ">
<path fill="none" stroke="#9a32cd" stroke-dasharray="5,2" d="M418.03,-289C451.69,-280.58 491.78,-267.94 525,-250 553.9,-234.39 581.89,-207.11 595.66,-192.65"/>
<polygon fill="#9a32cd" stroke="#9a32cd" points="417.15,-285.61 408.26,-291.37 418.8,-292.41 417.15,-285.61"/>
</a>
</g>
<text text-anchor="middle" x="479.5" y="-287" font-family="Helvetica,sans-Serif" font-size="10.00" fill="grey"> onFXClicked</text>
</g>
<!-- Node7 -->
<g id="Node000007" class="node">
<title>Node7</title>
<g id="a_Node000007"><a xlink:title=" ">
<polygon fill="white" stroke="#bfbfbf" points="403.5,-270 289.5,-270 289.5,-240 403.5,-240 403.5,-270"/>
<text text-anchor="start" x="297.5" y="-258" font-family="Helvetica,sans-Serif" font-size="10.00">function&lt; void(float</text>
<text text-anchor="middle" x="346.5" y="-247" font-family="Helvetica,sans-Serif" font-size="10.00"> newDb)&gt;</text>
</a>
</g>
</g>
<!-- Node7&#45;&gt;Node1 -->
<g id="edge6_Node000001_Node000007" class="edge">
<title>Node7&#45;&gt;Node1</title>
<g id="a_edge6_Node000001_Node000007"><a xlink:title=" ">
<path fill="none" stroke="#9a32cd" stroke-dasharray="5,2" d="M413.72,-241.45C447.33,-234.04 488.64,-224.11 525,-213 544.33,-207.09 565.74,-198.92 581.46,-192.59"/>
<polygon fill="#9a32cd" stroke="#9a32cd" points="412.58,-238.12 403.56,-243.67 414.07,-244.96 412.58,-238.12"/>
</a>
</g>
<text text-anchor="middle" x="479.5" y="-238" font-family="Helvetica,sans-Serif" font-size="10.00" fill="grey"> onFaderChanged</text>
</g>
<!-- Node8 -->
<g id="Node000008" class="node">
<title>Node8</title>
<g id="a_Node000008"><a xlink:title=" ">
<polygon fill="white" stroke="#bfbfbf" points="403,-222 290,-222 290,-192 403,-192 403,-222"/>
<text text-anchor="start" x="298" y="-210" font-family="Helvetica,sans-Serif" font-size="10.00">function&lt; void(bool</text>
<text text-anchor="middle" x="346.5" y="-199" font-family="Helvetica,sans-Serif" font-size="10.00"> muted)&gt;</text>
</a>
</g>
</g>
<!-- Node8&#45;&gt;Node1 -->
<g id="edge7_Node000001_Node000008" class="edge">
<title>Node8&#45;&gt;Node1</title>
<g id="a_edge7_Node000001_Node000008"><a xlink:title=" ">
<path fill="none" stroke="#9a32cd" stroke-dasharray="5,2" d="M413.43,-200.84C453.34,-197.12 503.91,-192.39 543,-188.74"/>
<polygon fill="#9a32cd" stroke="#9a32cd" points="412.9,-197.38 403.27,-201.79 413.55,-204.35 412.9,-197.38"/>
</a>
</g>
<text text-anchor="middle" x="479.5" y="-201" font-family="Helvetica,sans-Serif" font-size="10.00" fill="grey"> onMuteChanged</text>
</g>
<!-- Node9 -->
<g id="Node000009" class="node">
<title>Node9</title>
<g id="a_Node000009"><a xlink:title=" ">
<polygon fill="white" stroke="#bfbfbf" points="403,-174 290,-174 290,-144 403,-144 403,-174"/>
<text text-anchor="start" x="298" y="-162" font-family="Helvetica,sans-Serif" font-size="10.00">function&lt; void(bool</text>
<text text-anchor="middle" x="346.5" y="-151" font-family="Helvetica,sans-Serif" font-size="10.00"> soloed)&gt;</text>
</a>
</g>
</g>
<!-- Node9&#45;&gt;Node1 -->
<g id="edge8_Node000001_Node000009" class="edge">
<title>Node9&#45;&gt;Node1</title>
<g id="a_edge8_Node000001_Node000009"><a xlink:title=" ">
<path fill="none" stroke="#9a32cd" stroke-dasharray="5,2" d="M413.2,-164.76C446.67,-167.73 488.01,-171.47 525,-175 530.8,-175.55 536.84,-176.14 542.88,-176.74"/>
<polygon fill="#9a32cd" stroke="#9a32cd" points="413.35,-161.26 403.08,-163.86 412.73,-168.23 413.35,-161.26"/>
</a>
</g>
<text text-anchor="middle" x="479.5" y="-178" font-family="Helvetica,sans-Serif" font-size="10.00" fill="grey"> onSoloChanged</text>
</g>
<!-- Node10 -->
<g id="Node000010" class="node">
<title>Node10</title>
<g id="a_Node000010"><a xlink:title=" ">
<polygon fill="white" stroke="#bfbfbf" points="403.5,-126 289.5,-126 289.5,-96 403.5,-96 403.5,-126"/>
<text text-anchor="start" x="297.5" y="-114" font-family="Helvetica,sans-Serif" font-size="10.00">function&lt; void(float</text>
<text text-anchor="middle" x="346.5" y="-103" font-family="Helvetica,sans-Serif" font-size="10.00"> pan)&gt;</text>
</a>
</g>
</g>
<!-- Node10&#45;&gt;Node1 -->
<g id="edge9_Node000001_Node000010" class="edge">
<title>Node10&#45;&gt;Node1</title>
<g id="a_edge9_Node000001_Node000010"><a xlink:title=" ">
<path fill="none" stroke="#9a32cd" stroke-dasharray="5,2" d="M413.85,-123.31C447.49,-130.21 488.79,-139.71 525,-151 545.17,-157.29 567.42,-166.45 583.24,-173.35"/>
<polygon fill="#9a32cd" stroke="#9a32cd" points="414.17,-119.8 403.67,-121.25 412.78,-126.66 414.17,-119.8"/>
</a>
</g>
<text text-anchor="middle" x="479.5" y="-154" font-family="Helvetica,sans-Serif" font-size="10.00" fill="grey"> onPanChanged</text>
</g>
<!-- Node11 -->
<g id="Node000011" class="node">
<title>Node11</title>
<g id="a_Node000011"><a xlink:title=" ">
<polygon fill="white" stroke="#bfbfbf" points="415,-78 278,-78 278,-48 415,-48 415,-78"/>
<text text-anchor="start" x="286" y="-66" font-family="Helvetica,sans-Serif" font-size="10.00">function&lt; void(float</text>
<text text-anchor="middle" x="346.5" y="-55" font-family="Helvetica,sans-Serif" font-size="10.00"> db, uint32_t slotIndex)&gt;</text>
</a>
</g>
</g>
<!-- Node11&#45;&gt;Node1 -->
<g id="edge10_Node000001_Node000011" class="edge">
<title>Node11&#45;&gt;Node1</title>
<g id="a_edge10_Node000001_Node000011"><a xlink:title=" ">
<path fill="none" stroke="#9a32cd" stroke-dasharray="5,2" d="M424.96,-76.89C457.17,-84.64 494.16,-96.22 525,-113 554.72,-129.17 582.79,-158.26 596.23,-173.34"/>
<polygon fill="#9a32cd" stroke="#9a32cd" points="425.67,-73.46 415.13,-74.6 424.08,-80.28 425.67,-73.46"/>
</a>
</g>
<text text-anchor="middle" x="479.5" y="-116" font-family="Helvetica,sans-Serif" font-size="10.00" fill="grey"> onTrimChanged</text>
</g>
<!-- Node12 -->
<g id="Node000012" class="node">
<title>Node12</title>
<g id="a_Node000012"><a xlink:title=" ">
<polygon fill="white" stroke="#bfbfbf" points="403,-30 290,-30 290,0 403,0 403,-30"/>
<text text-anchor="start" x="298" y="-18" font-family="Helvetica,sans-Serif" font-size="10.00">function&lt; void(bool</text>
<text text-anchor="middle" x="346.5" y="-7" font-family="Helvetica,sans-Serif" font-size="10.00"> monitored)&gt;</text>
</a>
</g>
</g>
<!-- Node12&#45;&gt;Node1 -->
<g id="edge11_Node000001_Node000012" class="edge">
<title>Node12&#45;&gt;Node1</title>
<g id="a_edge11_Node000001_Node000012"><a xlink:title=" ">
<path fill="none" stroke="#9a32cd" stroke-dasharray="5,2" d="M412.95,-21.81C448.74,-28.15 492.31,-40.39 525,-64 565.68,-93.39 591.66,-150.49 600.81,-173.27"/>
<polygon fill="#9a32cd" stroke="#9a32cd" points="413.51,-18.35 403.08,-20.17 412.37,-25.26 413.51,-18.35"/>
</a>
</g>
<text text-anchor="middle" x="479.5" y="-67" font-family="Helvetica,sans-Serif" font-size="10.00" fill="grey"> onMonitorToggled</text>
</g>
</g>
</svg>

<g id="navigator" transform="translate(0 0)" fill="#404254">
  <rect fill="#f2f5e9" fill-opacity="0.5" stroke="#606060" stroke-width=".5" x="0" y="0" width="60" height="60"/>
  <use id="zoomplus" xlink:href="#zoomPlus" x="17" y="9" onmousedown="handleZoom(evt,'in')"/>
  <use id="zoomminus" xlink:href="#zoomMin" x="42" y="9" onmousedown="handleZoom(evt,'out')"/>
  <use id="reset" xlink:href="#resetDef" x="30" y="36" onmousedown="handleReset()"/>
   <use id="arrowup" xlink:href="#arrowUp" x="0" y="0" onmousedown="handlePan(0,-1)"/>
  <use id="arrowright" xlink:href="#arrowRight" x="0" y="0" onmousedown="handlePan(1,0)"/>
  <use id="arrowdown" xlink:href="#arrowDown" x="0" y="0" onmousedown="handlePan(0,1)"/>
  <use id="arrowleft" xlink:href="#arrowLeft" x="0" y="0" onmousedown="handlePan(-1,0)"/>
</g>
<svg viewBox="0 0 15 15" width="100%" height="30px" preserveAspectRatio="xMaxYMin meet">
 <g id="arrow_out" transform="scale(0.3 0.3)">
  <a xlink:href="classAestraUI_1_1UIMixerStrip__coll__graph_org.svg" target="_base">
   <rect id="button" ry="5" rx="5" y="6" x="6" height="38" width="38"
        fill="#f2f5e9" fill-opacity="0.5" stroke="#606060" stroke-width="1.0"/>
   <path id="arrow"
     d="M 11.500037,31.436501 C 11.940474,20.09759 22.043105,11.32322 32.158766,21.979434 L 37.068811,17.246167 C 37.068811,17.246167 37.088388,32 37.088388,32 L 22.160133,31.978069 C 22.160133,31.978069 26.997745,27.140456 26.997745,27.140456 C 18.528582,18.264221 13.291696,25.230495 11.500037,31.436501 z"
     style="fill:#404040;"/>
  </a>
 </g>
</svg>

<style type='text/css'>
<![CDATA[
[data-mouse-over-selected='false'] { opacity: 0.7; }
[data-mouse-over-selected='true']  { opacity: 1.0; }
]]>
</style>
<script type="application/ecmascript"><![CDATA[
document.addEventListener('DOMContentLoaded', (event) => {
  highlightEdges();
  highlightAdjacentNodes();
});
]]></script>
</svg>
