<?xml version="1.0" encoding="UTF-8" standalone="no"?>
<!DOCTYPE svg PUBLIC "-//W3C//DTD SVG 1.1//EN"
 "http://www.w3.org/Graphics/SVG/1.1/DTD/svg11.dtd">
<!-- Generated by graphviz version 2.43.0 (0)
 -->
<!-- Title: Aestra::Audio::PlaylistModel::setClipEdits Pages: 1 -->
<!--zoomable 230 -->

<svg id="main" version="1.1" xmlns="http://www.w3.org/2000/svg" xmlns:xlink="http://www.w3.org/1999/xlink" xml:space="preserve" onload="init(evt)">
<style type="text/css"><![CDATA[
.node, .edge {opacity: 0.7;}
.node.selected, .edge.selected {opacity: 1;}
.edge:hover path { stroke: red; }
.edge:hover polygon { stroke: red; fill: red; }
]]></style>

<defs>
  <circle id="rim" cx="0" cy="0" r="7"/>
  <circle id="rim2" cx="0" cy="0" r="3.5"/>
  <g id="zoomPlus">
    <use xlink:href="#rim" fill="#404040"><set attributeName="fill" to="#808080" begin="zoomplus.mouseover" end="zoomplus.mouseout"/></use>
    <path d="M-4,0h8M0,-4v8" fill="none" stroke="white" stroke-width="1.5" pointer-events="none"/>
  </g>
  <g id="zoomMin">
    <use xlink:href="#rim" fill="#404040"><set attributeName="fill" to="#808080" begin="zoomminus.mouseover" end="zoomminus.mouseout"/></use>
    <path d="M-4,0h8" fill="none" stroke="white" stroke-width="1.5" pointer-events="none"/>
  </g>
  <g id="arrowUp" transform="translate(30 24)">
    <use xlink:href="#rim"/>
    <path pointer-events="none" fill="none" stroke="white" stroke-width="1.5" d="M0,-3.0v7 M-2.5,-0.5L0,-3.0L2.5,-0.5"/>
  </g>
  <g id="arrowRight" transform="rotate(90) translate(36 -43)">
    <use xlink:href="#rim"/>
    <path pointer-events="none" fill="none" stroke="white" stroke-width="1.5" d="M0,-3.0v7 M-2.5,-0.5L0,-3.0L2.5,-0.5"/>
  </g>
  <g id="arrowDown" transform="rotate(180) translate(-30 -48)">
    <use xlink:href="#rim"/>
    <path pointer-events="none" fill="none" stroke="white" stroke-width="1.5" d="M0,-3.0v7 M-2.5,-0.5L0,-3.0L2.5,-0.5"/>
  </g>
  <g id="arrowLeft" transform="rotate(270) translate(-36 17)">
    <use xlink:href="#rim"/>
    <path pointer-events="none" fill="none" stroke="white" stroke-width="1.5" d="M0,-3.0v7 M-2.5,-0.5L0,-3.0L2.5,-0.5"/>
  </g>
  <g id="resetDef">
    <use xlink:href="#rim2" fill="#404040"><set attributeName="fill" to="#808080" begin="reset.mouseover" end="reset.mouseout"/></use>
  </g>
</defs>
<script type="application/ecmascript">
var viewWidth = 534;
var viewHeight = 230;
var sectionId = 'dynsection-16';
</script>
<script type="application/ecmascript" xlink:href="../../svg.min.js"/>
<svg id="graph" class="graph">
<g id="viewport">
<title>Aestra::Audio::PlaylistModel::setClipEdits</title>
<!-- Node1 -->
<g id="Node000001" class="node">
<title>Node1</title>
<g id="a_Node000001"><a xlink:title="Replace the editable playback properties for one clip instance.">
<polygon fill="#999999" stroke="#666666" points="526,-126 372,-126 372,-96 526,-96 526,-126"/>
<text text-anchor="start" x="380" y="-114" font-family="Helvetica,sans-Serif" font-size="10.00">Aestra::Audio::PlaylistModel</text>
<text text-anchor="middle" x="449" y="-103" font-family="Helvetica,sans-Serif" font-size="10.00">::setClipEdits</text>
</a>
</g>
</g>
<!-- Node2 -->
<g id="Node000002" class="node">
<title>Node2</title>
<g id="a_Node000002"><a xlink:href="../../db/dd1/classAestra_1_1Audio_1_1RenderAudioClipCommand.html#a02798abf02b4c53a3f28a7bd35521041" target="_top" xlink:title="Execute the command (first time)">
<polygon fill="white" stroke="#666666" points="336,-222 186,-222 186,-192 336,-192 336,-222"/>
<text text-anchor="start" x="194" y="-210" font-family="Helvetica,sans-Serif" font-size="10.00">Aestra::Audio::RenderAudio</text>
<text text-anchor="middle" x="261" y="-199" font-family="Helvetica,sans-Serif" font-size="10.00">ClipCommand::execute</text>
</a>
</g>
</g>
<!-- Node1&#45;&gt;Node2 -->
<g id="edge1_Node000001_Node000002" class="edge">
<title>Node1&#45;&gt;Node2</title>
<g id="a_edge1_Node000001_Node000002"><a xlink:title=" ">
<path fill="none" stroke="#63b8ff" d="M419.67,-132.13C397.71,-147.78 366.06,-168.76 336,-183 329.17,-186.24 321.78,-189.21 314.41,-191.87"/>
<polygon fill="#63b8ff" stroke="#63b8ff" points="421.81,-134.9 427.88,-126.21 417.72,-129.23 421.81,-134.9"/>
</a>
</g>
</g>
<!-- Node4 -->
<g id="Node000004" class="node">
<title>Node4</title>
<g id="a_Node000004"><a xlink:href="../../dd/d1c/classAestra_1_1Audio_1_1SetClipEditsCommand.html#ae3b47a09e203a278d7e310e263fa6af7" target="_top" xlink:title="Execute the command (first time)">
<polygon fill="white" stroke="#666666" points="334,-174 188,-174 188,-144 334,-144 334,-174"/>
<text text-anchor="start" x="196" y="-162" font-family="Helvetica,sans-Serif" font-size="10.00">Aestra::Audio::SetClipEdits</text>
<text text-anchor="middle" x="261" y="-151" font-family="Helvetica,sans-Serif" font-size="10.00">Command::execute</text>
</a>
</g>
</g>
<!-- Node1&#45;&gt;Node4 -->
<g id="edge3_Node000001_Node000004" class="edge">
<title>Node1&#45;&gt;Node4</title>
<g id="a_edge3_Node000001_Node000004"><a xlink:title=" ">
<path fill="none" stroke="#63b8ff" d="M379.88,-128.58C360.27,-133.64 339.08,-139.11 320.13,-144"/>
<polygon fill="#63b8ff" stroke="#63b8ff" points="380.85,-131.94 389.66,-126.06 379.1,-125.17 380.85,-131.94"/>
</a>
</g>
</g>
<!-- Node5 -->
<g id="Node000005" class="node">
<title>Node5</title>
<g id="a_Node000005"><a xlink:href="../../dd/d1c/classAestra_1_1Audio_1_1SetClipEditsCommand.html#a93ccb1cb008970c9d3c5fea655f6effb" target="_top" xlink:title="Redo the command (must be explicitly implemented) Implementers should consider: is redo() exactly exe...">
<polygon fill="white" stroke="#666666" points="334,-126 188,-126 188,-96 334,-96 334,-126"/>
<text text-anchor="start" x="196" y="-114" font-family="Helvetica,sans-Serif" font-size="10.00">Aestra::Audio::SetClipEdits</text>
<text text-anchor="middle" x="261" y="-103" font-family="Helvetica,sans-Serif" font-size="10.00">Command::redo</text>
</a>
</g>
</g>
<!-- Node1&#45;&gt;Node5 -->
<g id="edge4_Node000001_Node000005" class="edge">
<title>Node1&#45;&gt;Node5</title>
<g id="a_edge4_Node000001_Node000005"><a xlink:title=" ">
<path fill="none" stroke="#63b8ff" d="M361.53,-111C352.38,-111 343.14,-111 334.17,-111"/>
<polygon fill="#63b8ff" stroke="#63b8ff" points="361.81,-114.5 371.81,-111 361.81,-107.5 361.81,-114.5"/>
</a>
</g>
</g>
<!-- Node6 -->
<g id="Node000006" class="node">
<title>Node6</title>
<g id="a_Node000006"><a xlink:href="../../db/dd1/classAestra_1_1Audio_1_1RenderAudioClipCommand.html#a08716ecaa1091866d9147b3811752a30" target="_top" xlink:title="Undo the command.">
<polygon fill="white" stroke="#666666" points="336,-78 186,-78 186,-48 336,-48 336,-78"/>
<text text-anchor="start" x="194" y="-66" font-family="Helvetica,sans-Serif" font-size="10.00">Aestra::Audio::RenderAudio</text>
<text text-anchor="middle" x="261" y="-55" font-family="Helvetica,sans-Serif" font-size="10.00">ClipCommand::undo</text>
</a>
</g>
</g>
<!-- Node1&#45;&gt;Node6 -->
<g id="edge5_Node000001_Node000006" class="edge">
<title>Node1&#45;&gt;Node6</title>
<g id="a_edge5_Node000001_Node000006"><a xlink:title=" ">
<path fill="none" stroke="#63b8ff" d="M379.88,-93.42C360.27,-88.36 339.08,-82.89 320.13,-78"/>
<polygon fill="#63b8ff" stroke="#63b8ff" points="379.1,-96.83 389.66,-95.94 380.85,-90.06 379.1,-96.83"/>
</a>
</g>
</g>
<!-- Node7 -->
<g id="Node000007" class="node">
<title>Node7</title>
<g id="a_Node000007"><a xlink:href="../../dd/d1c/classAestra_1_1Audio_1_1SetClipEditsCommand.html#a806cc932d9b91335a9ffae08008e95a7" target="_top" xlink:title="Undo the command.">
<polygon fill="white" stroke="#666666" points="334,-30 188,-30 188,0 334,0 334,-30"/>
<text text-anchor="start" x="196" y="-18" font-family="Helvetica,sans-Serif" font-size="10.00">Aestra::Audio::SetClipEdits</text>
<text text-anchor="middle" x="261" y="-7" font-family="Helvetica,sans-Serif" font-size="10.00">Command::undo</text>
</a>
</g>
</g>
<!-- Node1&#45;&gt;Node7 -->
<g id="edge6_Node000001_Node000007" class="edge">
<title>Node1&#45;&gt;Node7</title>
<g id="a_edge6_Node000001_Node000007"><a xlink:title=" ">
<path fill="none" stroke="#63b8ff" d="M419.67,-89.87C397.71,-74.22 366.06,-53.24 336,-39 329.17,-35.76 321.78,-32.79 314.41,-30.13"/>
<polygon fill="#63b8ff" stroke="#63b8ff" points="417.72,-92.77 427.88,-95.79 421.81,-87.1 417.72,-92.77"/>
</a>
</g>
</g>
<!-- Node3 -->
<g id="Node000003" class="node">
<title>Node3</title>
<g id="a_Node000003"><a xlink:href="../../db/dd1/classAestra_1_1Audio_1_1RenderAudioClipCommand.html#ac9aa69760b9cd441d6a6d15af5aa19d5" target="_top" xlink:title="Redo the command (must be explicitly implemented) Implementers should consider: is redo() exactly exe...">
<polygon fill="white" stroke="#666666" points="150,-222 0,-222 0,-192 150,-192 150,-222"/>
<text text-anchor="start" x="8" y="-210" font-family="Helvetica,sans-Serif" font-size="10.00">Aestra::Audio::RenderAudio</text>
<text text-anchor="middle" x="75" y="-199" font-family="Helvetica,sans-Serif" font-size="10.00">ClipCommand::redo</text>
</a>
</g>
</g>
<!-- Node2&#45;&gt;Node3 -->
<g id="edge2_Node000002_Node000003" class="edge">
<title>Node2&#45;&gt;Node3</title>
<g id="a_edge2_Node000002_Node000003"><a xlink:title=" ">
<path fill="none" stroke="#63b8ff" d="M175.93,-207C167.35,-207 158.66,-207 150.19,-207"/>
<polygon fill="#63b8ff" stroke="#63b8ff" points="175.96,-210.5 185.96,-207 175.96,-203.5 175.96,-210.5"/>
</a>
</g>
</g>
</g>
</svg>

<g id="navigator" transform="translate(0 0)" fill="#404254">
  <rect fill="#f2f5e9" fill-opacity="0.5" stroke="#606060" stroke-width=".5" x="0" y="0" width="60" height="60"/>
  <use id="zoomplus" xlink:href="#zoomPlus" x="17" y="9" onmousedown="handleZoom(evt,'in')"/>
  <use id="zoomminus" xlink:href="#zoomMin" x="42" y="9" onmousedown="handleZoom(evt,'out')"/>
  <use id="reset" xlink:href="#resetDef" x="30" y="36" onmousedown="handleReset()"/>
   <use id="arrowup" xlink:href="#arrowUp" x="0" y="0" onmousedown="handlePan(0,-1)"/>
  <use id="arrowright" xlink:href="#arrowRight" x="0" y="0" onmousedown="handlePan(1,0)"/>
  <use id="arrowdown" xlink:href="#arrowDown" x="0" y="0" onmousedown="handlePan(0,1)"/>
  <use id="arrowleft" xlink:href="#arrowLeft" x="0" y="0" onmousedown="handlePan(-1,0)"/>
</g>
<svg viewBox="0 0 15 15" width="100%" height="30px" preserveAspectRatio="xMaxYMin meet">
 <g id="arrow_out" transform="scale(0.3 0.3)">
  <a xlink:href="classAestra_1_1Audio_1_1PlaylistModel_a17983ade5aa7a81a8f2d11fba2db2ad6_icgraph_org.svg" target="_base">
   <rect id="button" ry="5" rx="5" y="6" x="6" height="38" width="38"
        fill="#f2f5e9" fill-opacity="0.5" stroke="#606060" stroke-width="1.0"/>
   <path id="arrow"
     d="M 11.500037,31.436501 C 11.940474,20.09759 22.043105,11.32322 32.158766,21.979434 L 37.068811,17.246167 C 37.068811,17.246167 37.088388,32 37.088388,32 L 22.160133,31.978069 C 22.160133,31.978069 26.997745,27.140456 26.997745,27.140456 C 18.528582,18.264221 13.291696,25.230495 11.500037,31.436501 z"
     style="fill:#404040;"/>
  </a>
 </g>
</svg>

<style type='text/css'>
<![CDATA[
[data-mouse-over-selected='false'] { opacity: 0.7; }
[data-mouse-over-selected='true']  { opacity: 1.0; }
]]>
</style>
<script type="application/ecmascript"><![CDATA[
document.addEventListener('DOMContentLoaded', (event) => {
  highlightEdges();
  highlightAdjacentNodes();
});
]]></script>
</svg>
