<?xml version="1.0" encoding="UTF-8" standalone="no"?>
<!DOCTYPE svg PUBLIC "-//W3C//DTD SVG 1.1//EN"
 "http://www.w3.org/Graphics/SVG/1.1/DTD/svg11.dtd">
<!-- Generated by graphviz version 2.43.0 (0)
 -->
<!-- Title: Aestra::Audio::SetMuteCommand::undo Pages: 1 -->
<svg width="379pt" height="86pt"
 viewBox="0.00 0.00 379.00 86.00" xmlns="http://www.w3.org/2000/svg" xmlns:xlink="http://www.w3.org/1999/xlink">
<g id="graph0" class="graph" transform="scale(1 1) rotate(0) translate(4 82)">
<title>Aestra::Audio::SetMuteCommand::undo</title>
<!-- Node1 -->
<g id="Node000001" class="node">
<title>Node1</title>
<g id="a_Node000001"><a xlink:title="Undo the command.">
<polygon fill="#999999" stroke="#666666" points="179,-54 0,-54 0,-24 179,-24 179,-54"/>
<text text-anchor="start" x="8" y="-42" font-family="Helvetica,sans-Serif" font-size="10.00">Aestra::Audio::SetMuteCommand</text>
<text text-anchor="middle" x="89.5" y="-31" font-family="Helvetica,sans-Serif" font-size="10.00">::undo</text>
</a>
</g>
</g>
<!-- Node2 -->
<g id="Node000002" class="node">
<title>Node2</title>
<g id="a_Node000002"><a xlink:href="../../de/dca/classAestra_1_1Audio_1_1TrackManager.html#a46d9c986c264576c28e32e061b81d877" target="_top" xlink:title="Request a non&#45;real&#45;time rebuild of the live playback graph.">
<polygon fill="white" stroke="#666666" points="371,-78 215,-78 215,-48 371,-48 371,-78"/>
<text text-anchor="start" x="223" y="-66" font-family="Helvetica,sans-Serif" font-size="10.00">Aestra::Audio::TrackManager</text>
<text text-anchor="middle" x="293" y="-55" font-family="Helvetica,sans-Serif" font-size="10.00">::requestAudioGraphRebuild</text>
</a>
</g>
</g>
<!-- Node1&#45;&gt;Node2 -->
<g id="edge1_Node000001_Node000002" class="edge">
<title>Node1&#45;&gt;Node2</title>
<g id="a_edge1_Node000001_Node000002"><a xlink:title=" ">
<path fill="none" stroke="#63b8ff" d="M179.17,-49.56C187.75,-50.58 196.44,-51.62 205,-52.64"/>
<polygon fill="#63b8ff" stroke="#63b8ff" points="204.63,-56.12 214.97,-53.83 205.46,-49.17 204.63,-56.12"/>
</a>
</g>
</g>
<!-- Node3 -->
<g id="Node000003" class="node">
<title>Node3</title>
<g id="a_Node000003"><a xlink:href="../../d8/d9b/classAestra_1_1Audio_1_1MixerChannel.html#aa9c7c20a71885a144b3c8f97340357cb" target="_top" xlink:title="Set mute state.">
<polygon fill="white" stroke="#666666" points="370.5,-30 215.5,-30 215.5,0 370.5,0 370.5,-30"/>
<text text-anchor="start" x="223.5" y="-18" font-family="Helvetica,sans-Serif" font-size="10.00">Aestra::Audio::MixerChannel</text>
<text text-anchor="middle" x="293" y="-7" font-family="Helvetica,sans-Serif" font-size="10.00">::setMute</text>
</a>
</g>
</g>
<!-- Node1&#45;&gt;Node3 -->
<g id="edge2_Node000001_Node000003" class="edge">
<title>Node1&#45;&gt;Node3</title>
<g id="a_edge2_Node000001_Node000003"><a xlink:title=" ">
<path fill="none" stroke="#63b8ff" d="M179.17,-28.44C187.83,-27.41 196.6,-26.36 205.23,-25.33"/>
<polygon fill="#63b8ff" stroke="#63b8ff" points="205.77,-28.8 215.28,-24.14 204.94,-21.84 205.77,-28.8"/>
</a>
</g>
</g>
</g>
</svg>
