<?xml version="1.0" encoding="UTF-8" standalone="no"?>
<!DOCTYPE svg PUBLIC "-//W3C//DTD SVG 1.1//EN"
 "http://www.w3.org/Graphics/SVG/1.1/DTD/svg11.dtd">
<!-- Generated by graphviz version 2.43.0 (0)
 -->
<!-- Title: Aestra::Audio::SetClipEditsCommand::execute Pages: 1 -->
<svg width="511pt" height="86pt"
 viewBox="0.00 0.00 511.00 86.00" xmlns="http://www.w3.org/2000/svg" xmlns:xlink="http://www.w3.org/1999/xlink">
<g id="graph0" class="graph" transform="scale(1 1) rotate(0) translate(4 82)">
<title>Aestra::Audio::SetClipEditsCommand::execute</title>
<!-- Node1 -->
<g id="Node000001" class="node">
<title>Node1</title>
<g id="a_Node000001"><a xlink:title="Execute the command (first time)">
<polygon fill="#999999" stroke="#666666" points="146,-54 0,-54 0,-24 146,-24 146,-54"/>
<text text-anchor="start" x="8" y="-42" font-family="Helvetica,sans-Serif" font-size="10.00">Aestra::Audio::SetClipEdits</text>
<text text-anchor="middle" x="73" y="-31" font-family="Helvetica,sans-Serif" font-size="10.00">Command::execute</text>
</a>
</g>
</g>
<!-- Node2 -->
<g id="Node000002" class="node">
<title>Node2</title>
<g id="a_Node000002"><a xlink:href="../../db/db8/classAestra_1_1Audio_1_1PlaylistModel.html#a451289f1d5433a3c8793fb18b649b8fb" target="_top" xlink:title="Get a clip by ID.">
<polygon fill="white" stroke="#666666" points="336,-78 182,-78 182,-48 336,-48 336,-78"/>
<text text-anchor="start" x="190" y="-66" font-family="Helvetica,sans-Serif" font-size="10.00">Aestra::Audio::PlaylistModel</text>
<text text-anchor="middle" x="259" y="-55" font-family="Helvetica,sans-Serif" font-size="10.00">::getClip</text>
</a>
</g>
</g>
<!-- Node1&#45;&gt;Node2 -->
<g id="edge1_Node000001_Node000002" class="edge">
<title>Node1&#45;&gt;Node2</title>
<g id="a_edge1_Node000001_Node000002"><a xlink:title=" ">
<path fill="none" stroke="#63b8ff" d="M146.19,-48.42C154.59,-49.51 163.21,-50.64 171.77,-51.75"/>
<polygon fill="#63b8ff" stroke="#63b8ff" points="171.4,-55.23 181.77,-53.06 172.31,-48.29 171.4,-55.23"/>
</a>
</g>
</g>
<!-- Node3 -->
<g id="Node000003" class="node">
<title>Node3</title>
<g id="a_Node000003"><a xlink:href="../../db/db8/classAestra_1_1Audio_1_1PlaylistModel.html#a17983ade5aa7a81a8f2d11fba2db2ad6" target="_top" xlink:title="Replace the editable playback properties for one clip instance.">
<polygon fill="white" stroke="#666666" points="336,-30 182,-30 182,0 336,0 336,-30"/>
<text text-anchor="start" x="190" y="-18" font-family="Helvetica,sans-Serif" font-size="10.00">Aestra::Audio::PlaylistModel</text>
<text text-anchor="middle" x="259" y="-7" font-family="Helvetica,sans-Serif" font-size="10.00">::setClipEdits</text>
</a>
</g>
</g>
<!-- Node1&#45;&gt;Node3 -->
<g id="edge2_Node000001_Node000003" class="edge">
<title>Node1&#45;&gt;Node3</title>
<g id="a_edge2_Node000001_Node000003"><a xlink:title=" ">
<path fill="none" stroke="#63b8ff" d="M146.19,-29.58C154.59,-28.49 163.21,-27.36 171.77,-26.25"/>
<polygon fill="#63b8ff" stroke="#63b8ff" points="172.31,-29.71 181.77,-24.94 171.4,-22.77 172.31,-29.71"/>
</a>
</g>
</g>
<!-- Node4 -->
<g id="Node000004" class="node">
<title>Node4</title>
<g id="a_Node000004"><a xlink:href="../../d7/d56/structAestra_1_1Audio_1_1ClipEdits.html#a11adbc682b20b39cdbbdba80ac21e840" target="_top" xlink:title="Combined varispeed factor (Speed x 2^(Pitch/12)), clamped to the render envelope.">
<polygon fill="white" stroke="#666666" points="503,-30 372,-30 372,0 503,0 503,-30"/>
<text text-anchor="start" x="380" y="-18" font-family="Helvetica,sans-Serif" font-size="10.00">Aestra::Audio::ClipEdits</text>
<text text-anchor="middle" x="437.5" y="-7" font-family="Helvetica,sans-Serif" font-size="10.00">::effectiveVarispeed</text>
</a>
</g>
</g>
<!-- Node3&#45;&gt;Node4 -->
<g id="edge3_Node000003_Node000004" class="edge">
<title>Node3&#45;&gt;Node4</title>
<g id="a_edge3_Node000003_Node000004"><a xlink:title=" ">
<path fill="none" stroke="#63b8ff" d="M336.13,-15C344.62,-15 353.27,-15 361.74,-15"/>
<polygon fill="#63b8ff" stroke="#63b8ff" points="361.97,-18.5 371.97,-15 361.97,-11.5 361.97,-18.5"/>
</a>
</g>
</g>
</g>
</svg>
